<?xml version="1.0" standalone="no"?>
<!DOCTYPE svg PUBLIC "-//W3C//DTD SVG 1.1//EN" "http://www.w3.org/Graphics/SVG/1.1/DTD/svg11.dtd" >
<svg xmlns="http://www.w3.org/2000/svg">
<metadata>
Created by FontPrep 20130207 at Tue Mar 24 13:10:41 2015
 By Marcos Dopico Castro
Copyright (c) 2014 by Marcos Dopico // Mais Types. All rights reserved.
</metadata>
<defs>
<font id="037bbfbbf0164257e18f7f0e52caae9f" horiz-adv-x='1024' >
  <font-face 
    font-family="Isaac-SemiBold"
    font-weight="600"
    font-stretch="normal"
    units-per-em="2048"
    panose-1="0 0 0 0 0 0 0 0 0 0"
    ascent="1536"
    descent="-512"
    x-height="1024"
    cap-height="1475"
    bbox="-383 -481 2384 1925"
    underline-thickness="102"
    underline-position="-102"
    unicode-range="U+000D-FB04"
  />
<missing-glyph horiz-adv-x="829" 
d="M475 735l244 -524v1051zM414 606l-232 -497h465zM182 1366l232 -500l233 500h-465zM354 735l-245 531v-1059zM829 1475v-1475h-829v1475h829z" />
    <glyph glyph-name="ellipsis" unicode="&#x2e;&#x2e;&#x2e;" horiz-adv-x="1294" 
d="M913 127q0 57 40 98q39 41 97 41t99 -41t41 -98t-41 -97t-98 -40t-98 40q-40 40 -40 97zM508 127q0 57 41 98t98 41t97 -41t40 -98t-40 -97t-97 -40t-98 40t-41 97zM104 127q0 57 40 98t98 41t98 -41q41 -41 41 -98t-41 -97t-98 -40t-98 40q-40 40 -40 97z" />
    <glyph glyph-name="ff" unicode="ff" horiz-adv-x="1374" 
d="M434 819v-819h-231v819h-168v205h168v158q0 145 85 229t240 84q100 0 172 -29v-204q-59 29 -122 28q-143 0 -144 -129v-137h426v158q0 145 84 229t242 84q100 0 170 -29v-204q-57 29 -123 28q-143 0 -143 -129v-137h245v-205h-245v-819h-230v819h-426z" />
    <glyph glyph-name="fi" unicode="fi" horiz-adv-x="1187" 
d="M1090 0h-232v819h-424v-819h-231v819h-168v205h168v88q0 168 127 276q128 108 320 108t323 -122l-133 -170q-76 86 -184 86t-164 -53q-57 -53 -58 -154v-59h656v-1024z" />
    <glyph glyph-name="fl" unicode="fl" horiz-adv-x="1249" 
d="M1110 0h-231v1200q-84 90 -206 90q-237 0 -239 -207v-59h246v-205h-246v-819h-231v819h-168v205h168v88q0 170 129 276q128 106 342 107q214 0 436 -172v-1323z" />
    <glyph glyph-name="ffi" unicode="ffi" horiz-adv-x="1845" 
d="M35 819v205h168v158q0 145 85 229t240 84q100 0 172 -29v-204q-59 29 -122 28q-143 0 -144 -129v-137h428v88q0 168 127 276t319 108t324 -122l-135 -170q-74 86 -182 86q-107 0 -165 -53t-58 -154v-59h655v-1024h-229v819h-426v-819h-230v819h-428v-819h-231v819h-168z
" />
    <glyph glyph-name="ffl" unicode="ffl" horiz-adv-x="1906" 
d="M35 819v205h168v158q0 145 85 229t240 84q100 0 172 -29v-204q-59 29 -122 28q-143 0 -144 -129v-137h428v88q0 170 129 276t344 107q215 0 432 -172v-1323h-229v1200q-84 90 -207 90q-239 0 -239 -207v-59h245v-205h-245v-819h-230v819h-428v-819h-231v819h-168z" />
    <glyph glyph-name="fj" unicode="fj" horiz-adv-x="1187" 
d="M653 -238q1 0 27 -10t68 -10t76 31t34 86v960h-424v-819h-231v819h-168v205h168v88q0 160 119 266t296 115q72 0 123 -8q137 -25 232 -111l-133 -170q-76 86 -184 86t-164 -53q-57 -53 -58 -154v-59h656v-1200q0 -137 -88 -211t-218 -74q-63 0 -131 19v204z" />
    <glyph glyph-name="ffj" unicode="ffj" horiz-adv-x="1845" 
d="M35 819v205h168v158q0 145 85 229t240 84q100 0 172 -29v-204q-59 29 -122 28q-143 0 -144 -129v-137h428v88q0 164 122 272t306 111q212 0 342 -121l-135 -170q-74 86 -182 86q-107 0 -165 -53t-58 -154v-59h655v-1200q0 -137 -88 -211t-217 -74q-61 0 -129 19v204
q2 0 25 -10t67 -10q43 0 78 31t35 86v960h-426v-819h-230v819h-428v-819h-231v819h-168z" />
    <glyph glyph-name="ft" unicode="ft" horiz-adv-x="1452" 
d="M434 1083v-59h445v178q-84 88 -207 88q-122 0 -180 -56t-58 -151zM879 340v479h-445v-819h-231v819h-168v205h168v88q0 170 129 276t343 107q214 0 435 -172v-299h272v-205h-272v-493q0 -133 139 -133q67 -1 133 26v-205q-68 -25 -159 -24q-172 0 -258 96t-86 254z" />
    <glyph glyph-name="fft" unicode="fft" horiz-adv-x="2109" 
d="M1092 1083v-59h446v168q-101 109 -246 96q-96 -4 -148 -58t-52 -147zM1538 340v479h-446v-819h-230v819h-428v-819h-231v819h-168v205h168v160q0 131 87 216t238 85q102 0 172 -29v-205q-60 29 -122 29t-103 -30t-41 -95v-131h428v88q0 170 129 276t344 107
q215 0 432 -172v-299h273v-205h-273v-493q0 -133 140 -133q72 -1 133 26v-205q-66 -25 -162 -24q-168 0 -254 96t-86 254z" />
    <glyph glyph-name=".notdef" horiz-adv-x="829" 
d="M475 735l244 -524v1051zM414 606l-232 -497h465zM182 1366l232 -500l233 500h-465zM354 735l-245 531v-1059zM829 1475v-1475h-829v1475h829z" />
    <glyph glyph-name=".null" horiz-adv-x="0" 
 />
    <glyph glyph-name="nonmarkingreturn" horiz-adv-x="681" 
 />
    <glyph glyph-name="NULL" horiz-adv-x="0" 
 />
    <glyph glyph-name="NULL" horiz-adv-x="0" 
 />
    <glyph glyph-name="CR" unicode="&#xd;" horiz-adv-x="593" 
 />
    <glyph glyph-name="space" unicode=" " horiz-adv-x="452" 
 />
    <glyph glyph-name="exclam" unicode="!" horiz-adv-x="624" 
d="M156 145q0 63 45 109t111 47q66 0 111 -45q46 -45 46 -111q0 -67 -46 -111t-112 -44q-67 0 -111 46t-44 109zM428 1475l-45 -1063h-143l-43 1063h231z" />
    <glyph glyph-name="quotedbl" unicode="&#x22;" horiz-adv-x="821" 
d="M512 881v594h170v-594h-170zM139 881v594h168v-594h-168z" />
    <glyph glyph-name="numbersign" unicode="#" horiz-adv-x="1538" 
d="M666 819l-45 -207h231l43 207h-229zM1468 1024v-205h-350l-43 -207h285v-202h-330l-82 -390l-211 41l72 349h-231l-82 -390l-213 41l73 349h-286v202h329l43 207h-264v205h307l80 373l213 -37l-69 -336h229l80 373l213 -37l-70 -336h307z" />
    <glyph glyph-name="dollar" unicode="$" 
d="M614 -184v168q-184 16 -310 114t-171 256l211 78q72 -250 350 -250q301 0 301 238q0 131 -82 177t-292 73q-461 59 -461 391q0 176 121 297t333 135v166h154v-172q147 -21 266 -111t168 -266l-217 -76q-61 256 -319 256q-139 0 -208 -60t-69 -160t81 -145q81 -46 284 -67
q473 -55 473 -434q0 -182 -119 -302t-340 -138v-168h-154z" />
    <glyph glyph-name="percent" unicode="%" horiz-adv-x="1472" 
d="M1231 1475l-852 -1549l-129 74l850 1546zM1239 369q0 233 -144 233q-145 0 -145 -234t146 -235q76 1 110 57t33 179zM1403 369q0 -183 -79 -281q-78 -98 -228 -98t-230 98t-80 280t80 281t230 99t228 -98t79 -281zM520 1106q0 233 -144 233q-144 -1 -144 -235t145 -234
q75 0 109 56t34 180zM684 1106q0 -184 -79 -282t-229 -97q-150 0 -229 98q-79 99 -79 281t79 280q80 98 230 98q151 0 229 -96q78 -98 78 -282z" />
    <glyph glyph-name="ampersand" unicode="&#x26;" horiz-adv-x="1351" 
d="M694 1171q0 53 -28 86q-29 33 -76 33t-76 -33t-29 -81q0 -87 88 -183q121 66 121 178zM600 182q147 0 264 144l-358 411q-195 -76 -195 -266q0 -127 86 -208t203 -81zM254 1165q0 139 88 235t238 95q150 0 247 -85q99 -86 99 -204t-60 -216t-155 -156l286 -330
q63 104 117 229l201 -112q-100 -188 -170 -285l186 -207l-160 -149l-165 190q-96 -94 -188 -142t-216 -48q-225 0 -374 143q-148 143 -148 350q0 143 77 251t214 171q-117 131 -117 270z" />
    <glyph glyph-name="quotesingle" unicode="'" horiz-adv-x="446" 
d="M139 881v594h168v-594h-168z" />
    <glyph glyph-name="parenleft" unicode="(" horiz-adv-x="598" 
d="M334 595q0 -421 229 -788l-166 -110q-139 183 -216 417t-77 472t75 472t210 417l174 -113q-229 -346 -229 -767z" />
    <glyph glyph-name="parenright" unicode=")" horiz-adv-x="598" 
d="M494 586q0 -238 -76 -471t-217 -418l-166 110q229 367 229 790t-229 765l174 113q135 -183 210 -417t75 -472z" />
    <glyph glyph-name="asterisk" unicode="*" horiz-adv-x="1101" 
d="M1032 1047v-107h-352l248 -250l-74 -76l-250 250v-352h-106v352l-250 -250l-76 76l250 250h-352v107h352l-250 249l76 74l250 -248v353h106v-353l250 248l74 -74l-248 -249h352z" />
    <glyph glyph-name="plus" unicode="+" 
d="M768 1208v-381h383v-180h-383v-381h-178v381h-381v180h381v381h178z" />
    <glyph glyph-name="comma" unicode="," horiz-adv-x="509" 
d="M96 150q0 64 46 107q46 44 119 44t122 -59t49 -182q0 -124 -99 -230t-237 -115v72q51 8 106 62q54 54 54 141q-72 2 -116 49t-44 111z" />
    <glyph glyph-name="hyphen" unicode="-" horiz-adv-x="802" 
d="M698 604v-180h-594v180h594z" />
    <glyph glyph-name="period" unicode="." horiz-adv-x="503" 
d="M96 145q0 63 46 109t110 47q64 0 109 -46q47 -45 47 -109t-46 -110t-110 -46q-63 0 -110 46q-46 46 -46 109z" />
    <glyph glyph-name="slash" unicode="/" horiz-adv-x="948" 
d="M213 -180l-197 80l725 1804l199 -78z" />
    <glyph glyph-name="zero" unicode="0" horiz-adv-x="1382" 
d="M1051 734q-1 272 -93 414t-267 142t-267 -139t-92 -413t93 -415t267 -141t266 140t93 412zM1282 737q0 -362 -154 -560q-154 -197 -436 -197t-436 198t-154 559q0 362 154 560t436 198t436 -198t154 -560z" />
    <glyph glyph-name="one" unicode="1" horiz-adv-x="1021" 
d="M104 1270v205h547v-1272h318v-203h-865v203h318v1067h-318z" />
    <glyph glyph-name="two" unicode="2" horiz-adv-x="1095" 
d="M86 0v203l576 657q59 72 77 117t19 98q0 117 -62 166t-157 49q-96 0 -158 -64q-61 -65 -72 -192l-221 72q25 176 150 282q124 106 312 107q188 0 312 -110t125 -292q0 -182 -133 -339l-483 -551h637v-203h-922z" />
    <glyph glyph-name="three" unicode="3" horiz-adv-x="1155" 
d="M489 668v202h111q80 0 140 54t60 162q0 110 -62 157q-64 47 -148 47q-205 0 -240 -256l-219 76q23 152 145 268t308 117q188 0 317 -111t129 -290q0 -221 -190 -324v-4q227 -106 227 -356q0 -205 -136 -318q-136 -112 -337 -112t-338 102t-170 272l213 78
q20 -131 99 -190q79 -60 191 -60q113 0 181 58t68 181q0 124 -71 185t-161 62h-117z" />
    <glyph glyph-name="four" unicode="4" horiz-adv-x="1144" 
d="M723 512v352h229v-352h123v-205h-123v-307h-229v307h-672v205l615 963h258l-617 -963h416z" />
    <glyph glyph-name="five" unicode="5" horiz-adv-x="1173" 
d="M997 1475v-203h-557l-71 -420h4q113 111 303 111q190 1 312 -135q120 -136 120 -353t-136 -356t-346 -139t-344 100q-136 100 -176 276l213 86q15 -132 97 -196t192 -64t191 69q80 69 80 225t-79 218q-79 63 -196 64q-194 -1 -264 -144l-229 64l129 797h757z" />
    <glyph glyph-name="six" unicode="6" horiz-adv-x="1234" 
d="M918 490q0 130 -73 206t-202 76t-206 -74t-99 -176q12 -141 96 -240q84 -100 204 -100t200 89t80 219zM86 741q0 348 155 551t430 203t429 -170l-156 -154q-98 119 -250 119q-346 0 -370 -483h4q109 170 330 170t355 -132t134 -345t-143 -367t-375 -153q-262 0 -403 206
q-140 207 -140 555z" />
    <glyph glyph-name="seven" unicode="7" horiz-adv-x="1046" 
d="M51 1272v203h942v-203l-616 -1272h-240l621 1272h-707z" />
    <glyph glyph-name="eight" unicode="8" horiz-adv-x="1157" 
d="M799 1076q0 106 -66 160q-65 54 -155 54t-155 -54t-65 -160q0 -105 68 -156q68 -52 153 -52t153 52t67 156zM578 182q104 0 183 58t79 180q0 123 -80 183q-80 61 -182 61t-182 -60t-79 -183t79 -181t182 -58zM1028 1096q0 -121 -74 -218q-45 -60 -118 -94v-4
q233 -115 233 -377q0 -186 -136 -305q-136 -118 -354 -118t-356 118q-137 119 -137 305q0 260 236 377v4q-195 104 -195 312q0 176 127 288t325 111q197 1 323 -111t126 -288z" />
    <glyph glyph-name="nine" unicode="9" horiz-adv-x="1234" 
d="M317 998q0 -124 73 -200t202 -75q129 0 207 76t98 182q-18 133 -99 221t-201 88t-200 -84t-80 -208zM604 1495q264 -1 404 -203t139 -550q0 -348 -155 -556t-429 -206q-274 0 -430 170l158 151q98 -119 250 -119q342 0 370 502h-4q-111 -164 -331 -164t-355 131t-135 339
t144 356t374 149z" />
    <glyph glyph-name="colon" unicode=":" horiz-adv-x="503" 
d="M96 877q0 67 46 111t110 44t109 -45q47 -45 47 -111t-46 -110q-46 -45 -110 -45q-63 0 -110 45q-46 45 -46 111zM96 145q0 63 46 109t110 47q64 0 109 -46q47 -45 47 -109t-46 -110t-110 -46q-63 0 -110 46q-46 46 -46 109z" />
    <glyph glyph-name="semicolon" unicode=";" horiz-adv-x="509" 
d="M96 877q0 67 46 111t110 44t109 -45q47 -45 47 -111t-46 -110q-46 -45 -110 -45q-63 0 -110 45q-46 45 -46 111zM96 150q0 64 46 107q46 44 119 44t122 -59t49 -182q0 -124 -99 -230t-237 -115v72q51 8 106 62q54 54 54 141q-72 2 -116 49t-44 111z" />
    <glyph glyph-name="less" unicode="&#x3c;" 
d="M209 631v215l815 436l88 -182l-706 -359v-4l706 -360l-88 -180z" />
    <glyph glyph-name="equal" unicode="=" 
d="M1151 645v-180h-942v180h942zM1151 1008v-179h-942v179h942z" />
    <glyph glyph-name="greater" unicode="&#x3e;" 
d="M1149 846v-215l-815 -434l-90 180l708 360v4l-708 359l90 182z" />
    <glyph glyph-name="question" unicode="?" horiz-adv-x="1028" 
d="M287 145q0 63 45 109q44 46 110 47q66 0 112 -45t46 -111q0 -67 -46 -111t-112 -44t-110 46t-45 109zM516 1495q190 0 316 -111t126 -305q0 -98 -30 -169q-30 -72 -73 -106q-91 -71 -192 -119q-44 -23 -74 -65t-30 -102v-127h-231v127q0 125 40 195t128 118q14 8 61 30
q134 63 157 132q15 45 15 97q0 102 -63 151q-62 49 -160 49t-161 -64q-62 -65 -73 -192l-221 72q25 178 150 284t315 105z" />
    <glyph glyph-name="at" unicode="@" horiz-adv-x="1697" 
d="M1327 510q0 138 -85 234t-224 96t-222 -89t-83 -239t83 -240t222 -90t224 96t85 232zM283 510q0 -314 219 -536t545 -222q262 0 436 119l145 -156q-78 -63 -236 -114t-345 -52q-279 0 -508 129q-229 130 -359 352t-129 488q0 393 266 675t648 282q206 0 383 -99
q94 -53 151 -159t57 -256v-961h-194l-21 168h-4q-43 -84 -133 -136t-205 -52q-221 0 -369 143t-148 386t140 389q142 146 361 146q109 0 202 -50t138 -130h4v94q0 240 -241 297q-58 14 -121 15q-289 0 -486 -222q-196 -224 -196 -538z" />
    <glyph glyph-name="A" unicode="A" horiz-adv-x="1462" 
d="M719 1210l-254 -690h512l-254 690h-4zM1427 0h-247l-125 315h-670l-123 -315h-227l571 1475h246z" />
    <glyph glyph-name="B" unicode="B" horiz-adv-x="1363" 
d="M776 1270h-373v-422h392q86 0 139 58t53 158t-58 153q-59 53 -153 53zM825 643h-422v-440h408q96 0 157 56q60 55 60 157t-58 165q-59 62 -145 62zM776 1475q195 -1 319 -105t124 -296t-175 -302v-4q113 -56 164 -152t52 -194q0 -190 -124 -306t-309 -116h-653v1475h602z
" />
    <glyph glyph-name="C" unicode="C" horiz-adv-x="1568" 
d="M854 -20q-330 0 -540 208t-210 549q0 340 210 549t540 209q217 0 381 -100t248 -279l-211 -86q-123 260 -418 260q-242 0 -381 -156t-139 -398t141 -398t381 -156q299 0 430 252l215 -76q-90 -178 -257 -278t-390 -100z" />
    <glyph glyph-name="D" unicode="D" horiz-adv-x="1505" 
d="M674 1475q311 0 519 -203t208 -536q0 -332 -208 -534t-519 -202h-500v1475h500zM674 1270h-271v-1067h271q215 0 355 141t140 388q0 246 -141 392t-354 146z" />
    <glyph glyph-name="E" unicode="E" horiz-adv-x="1263" 
d="M403 850h611v-203h-611v-444h775v-203h-1004v1475h1004v-205h-775v-420z" />
    <glyph glyph-name="F" unicode="F" horiz-adv-x="1200" 
d="M403 1270v-422h590v-205h-590v-643h-229v1475h983v-205h-754z" />
    <glyph glyph-name="G" unicode="G" horiz-adv-x="1581" 
d="M784 588v205h674v-502q-98 -150 -254 -231t-350 -80q-332 0 -541 208t-209 550q0 343 206 550t532 207q210 0 372 -100t242 -275l-211 -86q-51 115 -155 186t-248 70q-238 0 -373 -154t-135 -399q0 -243 140 -399t378 -156q119 0 218 45t159 119v242h-445z" />
    <glyph glyph-name="H" unicode="H" horiz-adv-x="1572" 
d="M1399 0h-230v625h-766v-625h-229v1475h229v-648h766v648h230v-1475z" />
    <glyph glyph-name="I" unicode="I" horiz-adv-x="577" 
d="M403 0h-229v1475h229v-1475z" />
    <glyph glyph-name="J" unicode="J" horiz-adv-x="1165" 
d="M516 182q116 0 184 72t68 207v1014h231v-1022q0 -233 -138 -353t-338 -120q-201 0 -321 101t-167 273l213 78q59 -250 268 -250z" />
    <glyph glyph-name="K" unicode="K" horiz-adv-x="1398" 
d="M403 0h-229v1475h229v-730h5l645 730h288l-612 -676l653 -799h-299l-503 635l-177 -195v-440z" />
    <glyph glyph-name="L" unicode="L" horiz-adv-x="1064" 
d="M403 203h611v-203h-840v1475h229v-1272z" />
    <glyph glyph-name="M" unicode="M" horiz-adv-x="1822" 
d="M403 1059v-1059h-229v1475h279l456 -910h4l467 910h269v-1475h-232v1063h-2l-405 -766h-209l-393 762h-5z" />
    <glyph glyph-name="N" unicode="N" horiz-adv-x="1597" 
d="M1423 1475v-1475h-241l-774 1153h-5v-1153h-229v1475h283l731 -1092h4v1092h231z" />
    <glyph glyph-name="O" unicode="O" horiz-adv-x="1714" 
d="M1378 738q0 244 -140 398t-381 154t-382 -156t-141 -397q0 -243 141 -399t382 -156t381 156t140 400zM857 1495q331 0 542 -209t211 -549t-211 -549q-211 -208 -542 -208t-542 208t-211 549q0 340 211 549t542 209z" />
    <glyph glyph-name="P" unicode="P" horiz-adv-x="1306" 
d="M403 590h291q141 0 228 90q86 90 86 250t-86 250t-228 90h-291v-680zM694 385h-291v-385h-229v1475h520q240 0 392 -151q152 -150 151 -394q1 -244 -151 -394t-392 -151z" />
    <glyph glyph-name="Q" unicode="Q" horiz-adv-x="1714" 
d="M1378 737q0 245 -140 399t-381 154t-382 -156t-141 -397q0 -243 141 -399t381 -156q137 0 250 62l-205 205l168 169l217 -217q92 143 92 336zM857 1495q333 0 543 -206t210 -552q0 -295 -164 -497l151 -150l-167 -170l-168 166q-178 -106 -406 -106q-332 0 -542 206
t-210 551q0 346 210 552t543 206z" />
    <glyph glyph-name="R" unicode="R" horiz-adv-x="1345" 
d="M403 590h312q133 0 223 93t90 247t-90 247t-223 93h-312v-680zM1257 930q-1 -164 -81 -298t-215 -202v-4l296 -426h-280l-254 385h-320v-385h-229v1475h541q229 -1 385 -153t157 -392z" />
    <glyph glyph-name="S" unicode="S" horiz-adv-x="1308" 
d="M681 182q290 0 290 244q0 102 -54 150t-190 73q-43 9 -117 19t-124 20t-120 38t-117 67q-46 39 -81 107t-35 159q0 193 139 315t367 121q161 0 302 -73q79 -40 141 -120t94 -192l-215 -76q-61 256 -322 256q-135 0 -205 -59t-70 -153t54 -135q53 -40 139 -56
q86 -17 162 -27t123 -20t121 -41q73 -31 119 -73t82 -119t36 -175q0 -203 -137 -328q-137 -124 -371 -124t-384 99q-149 99 -202 275l211 78q74 -250 364 -250z" />
    <glyph glyph-name="T" unicode="T" horiz-adv-x="1204" 
d="M717 0h-232v1270h-434v205h1100v-205h-434v-1270z" />
    <glyph glyph-name="U" unicode="U" horiz-adv-x="1476" 
d="M1081 514v961h232v-949q0 -248 -158 -398t-417 -148q-260 0 -416 150t-156 396v949h229v-961q1 -168 97 -250t248 -82t247 83q94 83 94 249z" />
    <glyph glyph-name="V" unicode="V" horiz-adv-x="1421" 
d="M35 1475h248l436 -1237h4l434 1237h229l-550 -1475h-246z" />
    <glyph glyph-name="W" unicode="W" horiz-adv-x="2215" 
d="M35 1475h248l354 -1237h4l352 1237h248l356 -1237h5l352 1237h227l-467 -1475h-246l-358 1163h-4l-352 -1163h-246z" />
    <glyph glyph-name="X" unicode="X" horiz-adv-x="1486" 
d="M1165 0l-432 606h-4l-426 -606h-268l573 774l-528 701h291l374 -539h5l383 539h266l-535 -705l588 -770h-287z" />
    <glyph glyph-name="Y" unicode="Y" horiz-adv-x="1478" 
d="M858 0h-229v584l-594 891h274l436 -699h5l436 699h258l-586 -891v-584z" />
    <glyph glyph-name="Z" unicode="Z" horiz-adv-x="1327" 
d="M111 1475h1106v-203l-865 -1065v-4h905v-203h-1187v203l862 1063v4h-821v205z" />
    <glyph glyph-name="bracketleft" unicode="[" horiz-adv-x="636" 
d="M121 -287v1762h463v-203h-232v-1356h232v-203h-463z" />
    <glyph glyph-name="backslash" unicode="\" horiz-adv-x="946" 
d="M932 -100l-197 -80l-727 1806l199 78z" />
    <glyph glyph-name="bracketright" unicode="]" horiz-adv-x="636" 
d="M514 1475v-1762h-463v203h236v1356h-236v203h463z" />
    <glyph glyph-name="asciicircum" unicode="^" horiz-adv-x="1306" 
d="M764 1413l422 -719l-174 -98l-359 627l-354 -627l-178 98l420 719h223z" />
    <glyph glyph-name="underscore" unicode="_" horiz-adv-x="1011" 
d="M0 -256v102h1012v-102h-1012z" />
    <glyph glyph-name="grave" unicode="`" horiz-adv-x="690" 
d="M397 1475l160 -287h-182l-230 287h252z" />
    <glyph glyph-name="a" unicode="a" horiz-adv-x="1107" 
d="M317 297q0 -129 168 -129q111 0 191 55t80 170v84q-31 -18 -161 -18q-278 0 -278 -162zM86 287q0 209 187 277q158 59 427 61q55 0 56 49q0 82 -54 128t-155 46q-195 0 -248 -174l-213 76q37 118 153 206t304 88t315 -102t127 -328v-614h-194l-21 123h-4
q-45 -72 -133 -108t-189 -35q-147 0 -253 74q-105 75 -105 233z" />
    <glyph glyph-name="b" unicode="b" horiz-adv-x="1300" 
d="M369 512q0 -148 85 -238q85 -92 224 -92t222 96t83 235t-83 233t-222 94t-224 -90t-85 -238zM139 0v1475h230v-601h4q131 170 348 170t355 -146t138 -385t-140 -386t-353 -147q-248 0 -365 186h-4l-20 -166h-193z" />
    <glyph glyph-name="c" unicode="c" horiz-adv-x="1159" 
d="M86 511q0 228 155 381t392 152q324 0 452 -292l-215 -78q-72 166 -254 166q-139 0 -219 -91t-80 -235t82 -238t222 -94q91 0 163 44t103 118l219 -78q-74 -143 -201 -215t-278 -71q-231 0 -386 152t-155 379z" />
    <glyph glyph-name="d" unicode="d" horiz-adv-x="1300" 
d="M932 512q0 148 -85 238t-224 90t-223 -94t-83 -233q0 -140 83 -235q82 -96 222 -96t225 91t85 239zM1161 1475v-1475h-192l-21 166h-4q-117 -186 -364 -186q-213 0 -354 147q-140 147 -140 386t139 385t357 146t346 -170h4v601h229z" />
    <glyph glyph-name="e" unicode="e" horiz-adv-x="1208" 
d="M620 856q-108 0 -194 -64t-102 -186h563q-4 122 -82 186q-77 64 -185 64zM86 513q0 243 157 387t376 144t361 -132t142 -377q0 -18 -6 -93h-794q12 -138 99 -206t186 -68t177 42t113 134l209 -80q-66 -137 -198 -211t-290 -73q-228 0 -380 145t-152 388z" />
    <glyph glyph-name="f" unicode="f" horiz-adv-x="716" 
d="M35 819v205h168v158q0 145 85 229t240 84q100 0 172 -29v-204q-59 29 -122 28q-143 0 -144 -129v-137h246v-205h-246v-819h-231v819h-168z" />
    <glyph glyph-name="g" unicode="g" horiz-adv-x="1300" 
d="M622 182q138 0 224 91t86 239t-85 238t-224 90t-223 -94t-83 -235q0 -140 83 -235q84 -94 222 -94zM637 -274q131 0 213 68t82 226v130h-4q-129 -170 -346 -170t-357 146q-139 146 -139 385t140 386t356 147q246 0 362 -186h4l21 166h192v-997q0 -224 -112 -352
q-132 -146 -406 -146t-442 131l141 162q111 -96 295 -96z" />
    <glyph glyph-name="h" unicode="h" horiz-adv-x="1181" 
d="M1061 627v-627h-232v625q0 100 -51 157q-51 58 -149 58t-179 -74t-81 -172v-594h-230v1475h230v-603h4q119 172 332 172q156 0 256 -104t100 -313z" />
    <glyph glyph-name="i" unicode="i" horiz-adv-x="507" 
d="M98 1300q0 64 45 110t111 46t111 -46t45 -110t-45 -109q-45 -46 -111 -46t-111 46t-45 109zM369 0h-230v1024h230v-1024z" />
    <glyph glyph-name="j" unicode="j" horiz-adv-x="503" 
d="M92 1300q0 66 46 111t112 45t110 -46t46 -110q0 -64 -46 -109q-46 -46 -110 -46q-66 1 -112 45t-46 110zM-72 -238q2 0 27 -10t68 -10t77 31t33 86v1165h232v-1200q-1 -137 -89 -211t-217 -74q-63 0 -131 19v204z" />
    <glyph glyph-name="k" unicode="k" horiz-adv-x="1155" 
d="M369 0h-230v1475h230v-918h4l442 467h301l-438 -442l459 -582h-291l-318 422l-159 -170v-252z" />
    <glyph glyph-name="l" unicode="l" horiz-adv-x="507" 
d="M369 1475v-1475h-230v1475h230z" />
    <glyph glyph-name="m" unicode="m" horiz-adv-x="1802" 
d="M1679 627v-627h-229v625q0 215 -188 215q-100 0 -168 -76t-70 -176v-588h-229v639q0 201 -189 201q-111 0 -174 -79t-63 -175v-586h-230v1024h195l20 -152h4q123 172 318 172q221 0 307 -198h4q123 199 344 198q162 0 255 -110t93 -307z" />
    <glyph glyph-name="n" unicode="n" horiz-adv-x="1181" 
d="M1061 627v-627h-232v625q0 100 -51 157q-50 58 -150 58t-180 -76t-79 -178v-586h-230v1024h195l20 -176h4q121 197 347 196q156 0 256 -104t100 -313z" />
    <glyph glyph-name="o" unicode="o" horiz-adv-x="1269" 
d="M635 1044q229 0 388 -148t159 -385t-159 -384t-389 -147t-389 147t-159 384t160 385t389 148zM952 512q0 140 -89 234t-230 94t-229 -96t-87 -235q-1 -139 89 -233t230 -94t228 96t88 234z" />
    <glyph glyph-name="p" unicode="p" horiz-adv-x="1300" 
d="M369 512q0 -148 85 -238q85 -92 224 -92t222 94t83 234t-83 235t-222 95t-224 -90t-85 -238zM139 -451v1475h193l20 -166h4q117 186 365 186q213 0 353 -147t140 -386t-138 -385t-355 -146t-348 170h-4v-601h-230z" />
    <glyph glyph-name="q" unicode="q" horiz-adv-x="1300" 
d="M623 182q139 0 224 91t85 239t-85 238t-224 90t-223 -94t-83 -235q0 -140 83 -235q84 -94 223 -94zM1161 1024v-1475h-229v601h-4q-129 -170 -346 -170t-357 146q-139 146 -139 385t140 386t354 147q248 0 364 -186h4l21 166h192z" />
    <glyph glyph-name="r" unicode="r" horiz-adv-x="753" 
d="M358 868q112 174 262 174q70 0 115 -14l-24 -207q-45 16 -97 17q-102 0 -174 -76t-71 -176v-586h-230v1024h195l20 -156h4z" />
    <glyph glyph-name="s" unicode="s" horiz-adv-x="1044" 
d="M543 168q86 0 135 33t49 79t-20 75t-105 51q-85 21 -107 23q-22 3 -30 5q-348 70 -348 305q0 150 117 228q118 77 293 77t277 -85t128 -209l-209 -74q-30 131 -108 163q-39 17 -103 17t-114 -30t-50 -88t55 -82t162 -42t165 -38q58 -19 114 -52q114 -68 113 -224
q-1 -155 -115 -238q-114 -82 -302 -82q-187 0 -301 78t-151 206l205 80q61 -176 250 -176z" />
    <glyph glyph-name="t" unicode="t" horiz-adv-x="768" 
d="M195 340v479h-160v205h160l36 248h195v-248h272v-205h-272v-493q0 -133 137 -133q69 -1 135 26v-205q-68 -25 -163 -24q-166 0 -253 95t-87 255z" />
    <glyph glyph-name="u" unicode="u" horiz-adv-x="1179" 
d="M125 397v627h229v-623q0 -104 50 -161q50 -58 150 -58t178 77t79 179v586h229v-1024h-194l-21 176h-4q-113 -197 -358 -196q-143 0 -241 105q-97 105 -97 312z" />
    <glyph glyph-name="v" unicode="v" horiz-adv-x="1122" 
d="M440 0l-413 1024h237l305 -823h4l304 823h221l-412 -1024h-246z" />
    <glyph glyph-name="w" unicode="w" horiz-adv-x="1652" 
d="M27 1024h243l219 -768h5l219 768h243l220 -768h4l219 768h227l-332 -1024h-250l-208 766h-5l-225 -766h-248z" />
    <glyph glyph-name="x" unicode="x" horiz-adv-x="1091" 
d="M1047 1024l-377 -487l405 -537h-284l-246 373h-4l-256 -373h-269l410 537l-377 487h279l225 -330h4l223 330h267z" />
    <glyph glyph-name="y" unicode="y" horiz-adv-x="1122" 
d="M467 0l-440 1024h243l305 -778h5l290 778h228l-600 -1495h-226z" />
    <glyph glyph-name="z" unicode="z" horiz-adv-x="942" 
d="M72 819v205h798v-205l-532 -612v-4h551v-203h-838v203l531 612v4h-510z" />
    <glyph glyph-name="braceleft" unicode="{" horiz-adv-x="722" 
d="M485 438v-426q0 -104 82 -104h103v-195h-181q-106 -1 -171 61t-64 160v451q0 111 -113 111h-20v194h20q113 0 113 111v450q0 98 64 161q65 62 171 63h181v-195h-103q-82 0 -82 -104v-426q0 -105 -88 -154v-4q88 -49 88 -154z" />
    <glyph glyph-name="bar" unicode="|" horiz-adv-x="647" 
d="M438 1475v-1762h-229v1762h229z" />
    <glyph glyph-name="braceright" unicode="}" horiz-adv-x="722" 
d="M238 750v426q0 104 -82 104h-105v195h180q106 -1 171 -63t65 -161v-450q0 -111 113 -111h20v-194h-20q-113 0 -113 -111v-451q0 -98 -65 -159t-171 -62h-180v195h105q82 0 82 104v426q0 105 88 154v4q-88 49 -88 154z" />
    <glyph glyph-name="asciitilde" unicode="~" 
d="M1028 895h195q0 -168 -78 -274t-250 -107q-82 0 -153 35q-72 35 -110 77q-102 111 -186 111q-115 0 -114 -162h-195q0 171 80 275t248 104q79 0 149 -34t110 -76q108 -111 189 -111q115 0 115 162z" />
    <glyph glyph-name="exclamdown" unicode="&#xa1;" horiz-adv-x="624" 
d="M311 721q-67 0 -111 46q-44 47 -44 111t45 110t111 46t111 -45q46 -45 46 -111t-46 -111q-46 -46 -112 -46zM383 612l45 -1063h-231l43 1063h143z" />
    <glyph glyph-name="cent" unicode="&#xa2;" 
d="M780 1208v-168q268 -31 383 -282l-215 -78q-66 160 -222 160t-242 -96t-85 -236q0 -138 87 -232t229 -94q184 0 256 160l217 -76q-63 -124 -171 -196t-237 -86v-168h-153v170q-203 29 -331 173t-128 351t128 353t331 173v172h153z" />
    <glyph glyph-name="sterling" unicode="&#xa3;" 
d="M164 713h143v368q0 197 125 305q126 108 316 109q190 0 311 -104t149 -281l-217 -76q-27 256 -239 256q-90 0 -152 -51t-63 -160v-366h307v-150h-307v-375h671v-188h-1044v188h143v375h-143v150z" />
    <glyph glyph-name="currency" unicode="&#xa4;" 
d="M326 510q0 -144 103 -248t249 -104t250 103t104 249t-104 250t-250 104t-249 -104q-103 -105 -103 -250zM1212 510q0 -166 -98 -309l141 -142l-127 -125l-141 142q-135 -96 -308 -96t-306 98l-142 -141l-127 124l142 144q-98 139 -98 307t98 307l-142 139l127 125
l142 -139q137 100 307 100t307 -98l141 141l127 -126l-143 -144q100 -141 100 -307z" />
    <glyph glyph-name="yen" unicode="&#xa5;" 
d="M1153 412v-181h-354v-231h-232v231h-356v181h356v184h-356v178h248l-428 701h274l381 -701h4l383 701h254l-422 -701h248v-178h-354v-184h354z" />
    <glyph glyph-name="brokenbar" unicode="&#xa6;" horiz-adv-x="647" 
d="M438 1475v-697h-229v697h229zM438 410v-697h-229v697h229z" />
    <glyph glyph-name="section" unicode="&#xa7;" 
d="M467 601q0 -89 59 -129t189 -66q80 6 129 53t49 133t-52 126q-53 39 -184 68q-94 0 -142 -48t-48 -137zM236 599q0 99 42 179t113 123q-119 90 -119 249t121 252t298 93t279 -100t130 -250l-209 -74q-27 231 -207 232q-76 0 -129 -41q-53 -40 -53 -106q0 -118 158 -158
t302 -111q68 -35 114 -110t46 -178t-48 -181t-120 -117q58 -37 96 -107t37 -149q-1 -158 -121 -251t-297 -93t-281 99q-103 99 -130 251l211 72q6 -53 21 -99q16 -46 64 -90t122 -43q74 0 127 41q53 40 53 106q0 115 -163 161q-163 45 -297 115q-68 36 -114 111t-46 174z
" />
    <glyph glyph-name="dieresis" unicode="&#xa8;" horiz-adv-x="1175" 
d="M657 1308q0 64 46 110q45 46 109 46t110 -46t47 -110q0 -64 -45 -111q-45 -46 -111 -46t-111 46q-45 47 -45 111zM362 1151q-66 0 -110 46q-44 47 -45 111q0 64 46 110t109 46q64 0 110 -46t46 -110t-45 -111q-45 -46 -111 -46z" />
    <glyph glyph-name="copyright" unicode="&#xa9;" horiz-adv-x="1579" 
d="M215 737q0 -237 168 -405q167 -168 405 -168t406 168t168 406t-168 405q-168 168 -405 168t-405 -168t-169 -406zM51 737q0 305 216 521t521 216q306 0 522 -216t216 -521t-216 -521t-522 -216t-521 216q-216 216 -216 521zM410 737q0 175 105 277t280 102q106 0 191 -47
t128 -137l-149 -66q-51 104 -163 104t-170 -62q-58 -64 -58 -168t54 -172q56 -66 173 -66t172 98l153 -51q-43 -90 -133 -140t-198 -51q-173 0 -279 102t-106 277z" />
    <glyph glyph-name="ordfeminine" unicode="&#xaa;" horiz-adv-x="555" 
d="M193 1118q0 -47 61 -47q41 -1 75 19t33 67v31q-10 -8 -53 -8q-116 -1 -116 -62zM43 1103q0 77 49 117q50 40 108 49t142 9q20 0 20 22q0 60 -78 60t-106 -72l-135 49q59 147 233 148q98 0 167 -53t69 -162v-307h-127l-10 51h-2q-15 -27 -59 -44q-44 -18 -102 -18t-114 37
q-55 37 -55 114z" />
    <glyph glyph-name="guillemotleft" unicode="&#xab;" horiz-adv-x="1120" 
d="M997 860l-249 -346l249 -348l-149 -105l-313 451l313 453zM567 860l-250 -346l250 -348l-149 -105l-314 451l314 453z" />
    <glyph glyph-name="logicalnot" unicode="&#xac;" 
d="M147 770v205h1016v-586h-229v381h-787z" />
    <glyph glyph-name="registered" unicode="&#xae;" horiz-adv-x="1579" 
d="M682 676h121q57 0 88 39t31 105t-31 107q-31 40 -88 40h-121v-291zM1085 819q0 -172 -141 -258v-2l141 -190h-192l-113 168h-98v-168h-164v737h285q127 0 205 -82t77 -205zM215 737q0 -237 168 -405q167 -168 405 -168t406 168t168 406t-168 405q-168 168 -405 168
t-405 -168t-169 -406zM51 737q0 305 216 521t521 216q306 0 522 -216t216 -521t-216 -521t-522 -216t-521 216q-216 216 -216 521z" />
    <glyph glyph-name="macron" unicode="&#xaf;" horiz-adv-x="952" 
d="M778 1427v-163h-604v163h604z" />
    <glyph glyph-name="degree" unicode="&#xb0;" horiz-adv-x="651" 
d="M325 1169q24 1 40 17t16 41t-16 41t-40 16t-41 -16q-18 -16 -18 -41t18 -41t41 -17zM326 1413q78 0 132 -54t54 -131t-55 -132q-55 -56 -131 -56t-131 56t-55 132q0 77 54 131t132 54z" />
    <glyph glyph-name="plusminus" unicode="&#xb1;" 
d="M1151 371v-178h-942v178h942zM1151 993v-178h-383v-301h-178v301h-381v178h381v299h178v-299h383z" />
    <glyph glyph-name="twosuperior" unicode="&#xb2;" horiz-adv-x="688" 
d="M106 737v148l285 323q29 31 29 66q0 66 -72 65q-80 0 -86 -100l-153 47q12 90 78 145q67 54 166 54q99 -1 165 -57t66 -146t-68 -172l-207 -229h285v-144h-488z" />
    <glyph glyph-name="threesuperior" unicode="&#xb3;" horiz-adv-x="688" 
d="M285 1049v145h63q27 0 46 19t20 59q0 68 -72 67q-80 0 -88 -102l-154 55q10 66 74 129t168 63t170 -58q66 -60 66 -153t-89 -151v-2q107 -48 107 -162t-72 -172t-176 -59q-104 0 -179 51t-91 137l151 54q11 -99 107 -99t96 88q0 47 -24 69q-25 22 -58 22h-65z" />
    <glyph glyph-name="acute" unicode="&#xb4;" horiz-adv-x="690" 
d="M133 1188l160 287h250l-228 -287h-182z" />
    <glyph glyph-name="mu" unicode="&#xb5;" horiz-adv-x="1179" 
d="M125 -451v1475h229v-625q0 -102 50 -159q50 -58 150 -58t178 77t79 179v586h229v-1024h-194l-21 176h-4q-92 -197 -291 -196q-109 0 -176 65v-496h-229z" />
    <glyph glyph-name="paragraph" unicode="&#xb6;" horiz-adv-x="1273" 
d="M86 1061q0 170 122 292t292 122h600v-1643h-185v1462h-231v-1462h-184v815q-170 0 -292 122t-122 292z" />
    <glyph glyph-name="periodcentered" unicode="&#xb7;" horiz-adv-x="503" 
d="M96 512q0 66 46 111t110 45t109 -45q47 -45 47 -111t-46 -111t-110 -45q-63 0 -110 45q-46 45 -46 111z" />
    <glyph glyph-name="cedilla" unicode="&#xb8;" horiz-adv-x="772" 
d="M567 -284q0 -82 -59 -139q-59 -58 -152 -58t-151 75l117 95q18 -23 40 -23t40 16t18 38q0 24 -16 39t-40 15t-42 -20l-115 92l117 154h180l-94 -82q59 -10 108 -65t49 -137z" />
    <glyph glyph-name="onesuperior" unicode="&#xb9;" horiz-adv-x="688" 
d="M133 1329v146h309v-594h146v-144h-455v144h146v448h-146z" />
    <glyph glyph-name="ordmasculine" unicode="&#xba;" horiz-adv-x="643" 
d="M322 1485q118 0 198 -75q80 -76 80 -192t-81 -191t-197 -75t-198 75q-81 75 -81 192t81 191t198 75zM323 1354q-59 0 -95 -41t-36 -94t35 -95q35 -41 95 -41t95 41q36 40 36 94t-35 95t-95 41z" />
    <glyph glyph-name="guillemotright" unicode="&#xbb;" horiz-adv-x="1120" 
d="M375 512l-254 348l149 105l314 -453l-314 -451l-149 103zM807 512l-254 348l149 105l314 -453l-314 -451l-149 103z" />
    <glyph glyph-name="onequarter" unicode="&#xbc;" horiz-adv-x="1484" 
d="M1323 1475l-850 -1549l-131 74l850 1546zM133 1329v146h309v-594h146v-144h-455v144h146v448h-146zM1178 270v123h163v-123h62v-143h-62v-127h-163v127h-314v143l285 467h180l-285 -467h134z" />
    <glyph glyph-name="onehalf" unicode="&#xbd;" horiz-adv-x="1484" 
d="M1282 1475l-850 -1549l-131 74l850 1546zM903 0v147l285 324q29 31 29 66q0 66 -72 65q-80 0 -86 -100l-154 47q12 90 79 144q67 55 166 55t165 -56q65 -56 65 -147q0 -90 -67 -172l-207 -230h285v-143h-488zM133 1329v146h309v-594h146v-144h-455v144h146v448h-146z" />
    <glyph glyph-name="threequarters" unicode="&#xbe;" horiz-adv-x="1484" 
d="M1298 1475l-849 -1549l-132 74l850 1546zM285 1049v145h63q27 0 46 19t20 59q0 68 -72 67q-80 0 -88 -102l-154 55q10 66 74 129t168 63t170 -58q66 -60 66 -153t-89 -151v-2q107 -48 107 -162t-72 -172t-176 -59q-104 0 -179 51t-91 137l151 54q11 -99 107 -99t96 88
q0 47 -24 69q-25 22 -58 22h-65zM1178 270v123h163v-123h62v-143h-62v-127h-163v127h-314v143l285 467h180l-285 -467h134z" />
    <glyph glyph-name="questiondown" unicode="&#xbf;" horiz-adv-x="1028" 
d="M430 889q0 67 45 111t111 44t110 -45t45 -111q0 -66 -45 -111q-44 -46 -110 -46t-111 46t-45 112zM70 -35q0 98 29 169q30 71 75 106q96 75 193 119q45 22 75 65t29 102v127h229v-127q0 -124 -40 -194t-128 -119q-14 -8 -61 -30q-134 -63 -157 -132q-15 -45 -15 -96
q0 -103 63 -153q62 -50 160 -50t161 65q62 65 73 191l221 -69q-25 -177 -150 -283t-317 -106t-316 110q-124 111 -124 305z" />
    <glyph glyph-name="Agrave" unicode="&#xc0;" horiz-adv-x="1462" 
d="M723 1925l160 -287h-183l-229 287h252zM719 1210l-254 -690h512l-254 690h-4zM1427 0h-247l-125 315h-670l-123 -315h-227l571 1475h246z" />
    <glyph glyph-name="Aacute" unicode="&#xc1;" horiz-adv-x="1462" 
d="M563 1638l160 287h250l-228 -287h-182zM719 1210l-254 -690h512l-254 690h-4zM1427 0h-247l-125 315h-670l-123 -315h-227l571 1475h246z" />
    <glyph glyph-name="Acircumflex" unicode="&#xc2;" horiz-adv-x="1462" 
d="M983 1720l-96 -98l-166 180l-164 -180l-98 98l188 205h150zM719 1210l-254 -690h512l-254 690h-4zM1427 0h-247l-125 315h-670l-123 -315h-227l571 1475h246z" />
    <glyph glyph-name="Atilde" unicode="&#xc3;" horiz-adv-x="1462" 
d="M860 1626q-53 0 -99 23t-72 49q-71 72 -111 71q-70 0 -70 -102h-133q0 106 52 178t159 72q57 0 110 -35q52 -35 94 -71t72 -35q76 0 76 100h133q0 -250 -211 -250zM719 1210l-254 -690h512l-254 690h-4zM1427 0h-247l-125 315h-670l-123 -315h-227l571 1475h246z" />
    <glyph glyph-name="Adieresis" unicode="&#xc4;" horiz-adv-x="1462" 
d="M946 1593q-66 0 -110 46q-44 47 -45 111q0 64 45 110q44 46 110 47q66 0 111 -46t45 -111t-45 -111t-111 -46zM340 1750q0 64 45 110t111 47q66 0 110 -46t45 -111q0 -65 -45 -111q-44 -46 -110 -46t-111 46q-45 47 -45 111zM719 1210l-254 -690h512l-254 690h-4zM1427 0
h-247l-125 315h-670l-123 -315h-227l571 1475h246z" />
    <glyph glyph-name="Aring" unicode="&#xc5;" horiz-adv-x="1462" 
d="M722 1540q22 0 37 15t15 38t-15 39t-38 16t-38 -16t-15 -38t16 -38t38 -16zM719 1210l-248 -671h500l-248 671h-4zM518 1587q0 91 60 151t143 60q84 0 143 -60q60 -60 60 -146t-62 -142l565 -1450h-247l-123 311h-674l-121 -311h-227l557 1438q-74 59 -74 149z" />
    <glyph glyph-name="AE" unicode="&#xc6;" horiz-adv-x="2074" 
d="M1016 520v602h-4l-387 -602h391zM1245 868h580v-200h-580v-467h744v-201h-973v317h-520l-207 -317h-254l946 1475h1008v-205h-744v-402z" />
    <glyph glyph-name="Ccedilla" unicode="&#xc7;" horiz-adv-x="1568" 
d="M854 1495q217 0 381 -100t248 -279l-211 -86q-60 121 -166 191t-252 69q-242 0 -381 -156t-139 -398t141 -398t379 -156q301 0 432 252l215 -76q-80 -158 -222 -256t-329 -118l-80 -66q58 -10 108 -65t50 -137t-59 -139q-59 -58 -153 -58t-150 75l116 95q18 -23 40 -23
t40 16q16 16 16 38q0 24 -14 39q-16 15 -40 15t-42 -20l-116 92l104 138q-297 28 -481 232q-185 204 -185 532t210 538q210 209 540 209z" />
    <glyph glyph-name="Egrave" unicode="&#xc8;" horiz-adv-x="1263" 
d="M692 1925l160 -287h-182l-230 287h252zM403 850h611v-203h-611v-444h775v-203h-1004v1475h1004v-205h-775v-420z" />
    <glyph glyph-name="Eacute" unicode="&#xc9;" horiz-adv-x="1263" 
d="M563 1638l160 287h250l-228 -287h-182zM403 850h611v-203h-611v-444h775v-203h-1004v1475h1004v-205h-775v-420z" />
    <glyph glyph-name="Ecircumflex" unicode="&#xca;" horiz-adv-x="1263" 
d="M967 1720l-97 -98l-165 180l-164 -180l-99 98l189 205h149zM403 850h611v-203h-611v-444h775v-203h-1004v1475h1004v-205h-775v-420z" />
    <glyph glyph-name="Edieresis" unicode="&#xcb;" horiz-adv-x="1263" 
d="M764 1750q0 64 46 110t110 47q64 0 109 -46q46 -46 46 -111t-45 -111q-44 -46 -110 -46t-111 46q-45 47 -45 111zM313 1750q0 64 46 110q45 46 109 47q64 0 110 -46t47 -111q0 -65 -45 -111t-111 -46t-111 46q-45 47 -45 111zM403 850h611v-203h-611v-444h775v-203h-1004
v1475h1004v-205h-775v-420z" />
    <glyph glyph-name="Igrave" unicode="&#xcc;" horiz-adv-x="577" 
d="M270 1925l160 -287h-182l-230 287h252zM403 0h-229v1475h229v-1475z" />
    <glyph glyph-name="Iacute" unicode="&#xcd;" horiz-adv-x="577" 
d="M147 1638l160 287h250l-227 -287h-183zM403 0h-229v1475h229v-1475z" />
    <glyph glyph-name="Icircumflex" unicode="&#xce;" horiz-adv-x="577" 
d="M551 1720l-96 -98l-166 180l-164 -180l-98 98l188 205h150zM403 0h-229v1475h229v-1475z" />
    <glyph glyph-name="Idieresis" unicode="&#xcf;" horiz-adv-x="577" 
d="M358 1750q0 64 46 110t110 47q64 0 110 -46t46 -111t-45 -111t-111 -46t-111 46q-45 47 -45 111zM63 1593q-67 0 -111 46q-44 47 -44 111t46 110t109 47q63 0 109 -46t47 -111q0 -65 -45 -111t-111 -46zM403 0h-229v1475h229v-1475z" />
    <glyph glyph-name="Eth" unicode="&#xd0;" horiz-adv-x="1470" 
d="M567 811v-147h-164v-461h271q215 0 355 141t140 388t-142 392t-353 146h-271v-459h164zM674 1475q309 0 517 -203t208 -536q0 -332 -207 -534t-518 -202h-500v664h-164v147h164v664h500z" />
    <glyph glyph-name="Ntilde" unicode="&#xd1;" horiz-adv-x="1597" 
d="M958 1626q-53 0 -99 23t-72 49q-71 72 -111 71q-70 0 -70 -102h-133q0 106 52 178t148 72t216 -106q41 -36 72 -35q76 0 75 100h133q0 -250 -211 -250zM1423 1475v-1475h-241l-774 1153h-5v-1153h-229v1475h283l731 -1092h4v1092h231z" />
    <glyph glyph-name="Ograve" unicode="&#xd2;" horiz-adv-x="1714" 
d="M848 1925l160 -287h-183l-229 287h252zM1378 738q0 244 -140 398t-381 154t-382 -156t-141 -397q0 -243 141 -399t382 -156t381 156t140 400zM857 1495q331 0 542 -209t211 -549t-211 -549q-211 -208 -542 -208t-542 208t-211 549q0 340 211 549t542 209z" />
    <glyph glyph-name="Oacute" unicode="&#xd3;" horiz-adv-x="1714" 
d="M723 1638l160 287h250l-228 -287h-182zM1378 738q0 244 -140 398t-381 154t-382 -156t-141 -397q0 -243 141 -399t382 -156t381 156t140 400zM857 1495q331 0 542 -209t211 -549t-211 -549q-211 -208 -542 -208t-542 208t-211 549q0 340 211 549t542 209z" />
    <glyph glyph-name="Ocircumflex" unicode="&#xd4;" horiz-adv-x="1714" 
d="M1137 1720l-97 -98l-166 180l-163 -180l-99 98l189 205h149zM1378 738q0 244 -140 398t-381 154t-382 -156t-141 -397q0 -243 141 -399t382 -156t381 156t140 400zM857 1495q331 0 542 -209t211 -549t-211 -549q-211 -208 -542 -208t-542 208t-211 549q0 340 211 549
t542 209z" />
    <glyph glyph-name="Otilde" unicode="&#xd5;" horiz-adv-x="1714" 
d="M1001 1626q-53 0 -99 23t-72 49q-71 72 -111 71q-70 0 -70 -102h-133q0 106 52 178t148 72t216 -106q41 -36 72 -35q76 0 75 100h133q0 -250 -211 -250zM1378 738q0 244 -140 398t-381 154t-382 -156t-141 -397q0 -243 141 -399t382 -156t381 156t140 400zM857 1495
q331 0 542 -209t211 -549t-211 -549q-211 -208 -542 -208t-542 208t-211 549q0 340 211 549t542 209z" />
    <glyph glyph-name="Odieresis" unicode="&#xd6;" horiz-adv-x="1714" 
d="M940 1750q0 64 46 110t110 47q64 0 109 -46q46 -46 46 -111t-45 -111q-44 -46 -110 -46t-111 46q-45 47 -45 111zM645 1593q-66 0 -111 46q-45 47 -45 111q1 64 47 110t109 47q63 0 109 -46t47 -111q0 -65 -45 -111t-111 -46zM1378 738q0 244 -140 398t-381 154
t-382 -156t-141 -397q0 -243 141 -399t382 -156t381 156t140 400zM857 1495q331 0 542 -209t211 -549t-211 -549q-211 -208 -542 -208t-542 208t-211 549q0 340 211 549t542 209z" />
    <glyph glyph-name="multiply" unicode="&#xd7;" 
d="M289 1001l125 125l264 -264l266 264l125 -125l-264 -264l264 -264l-127 -125l-264 262l-262 -262l-127 125l264 264z" />
    <glyph glyph-name="Oslash" unicode="&#xd8;" horiz-adv-x="1714" 
d="M1378 737q0 184 -86 324l-770 -768q137 -111 334 -111q242 0 382 156t140 399zM856 1290q-240 0 -381 -156t-141 -397q0 -188 86 -327l772 768q-135 112 -336 112zM838 1495q314 0 510 -160l139 140l110 -111l-141 -139q154 -203 154 -488q0 -346 -210 -551t-544 -206
q-291 0 -489 157l-140 -139l-108 111l139 139q-154 195 -154 489q0 346 210 552t524 206z" />
    <glyph glyph-name="Ugrave" unicode="&#xd9;" horiz-adv-x="1476" 
d="M721 1925l160 -287h-183l-229 287h252zM1081 514v961h232v-949q0 -248 -158 -398t-417 -148q-260 0 -416 150t-156 396v949h229v-961q1 -168 97 -250t248 -82t247 83q94 83 94 249z" />
    <glyph glyph-name="Uacute" unicode="&#xda;" horiz-adv-x="1476" 
d="M610 1638l160 287h250l-227 -287h-183zM1081 514v961h232v-949q0 -248 -158 -398t-417 -148q-260 0 -416 150t-156 396v949h229v-961q1 -168 97 -250t248 -82t247 83q94 83 94 249z" />
    <glyph glyph-name="Ucircumflex" unicode="&#xdb;" horiz-adv-x="1476" 
d="M997 1720l-96 -98l-166 180l-164 -180l-98 98l189 205h149zM1081 514v961h232v-949q0 -248 -158 -398t-417 -148q-260 0 -416 150t-156 396v949h229v-961q1 -168 97 -250t248 -82t247 83q94 83 94 249z" />
    <glyph glyph-name="Udieresis" unicode="&#xdc;" horiz-adv-x="1476" 
d="M1116 1758q0 -64 -45 -110t-111 -46t-110 46q-45 46 -45 110t46 110q45 46 109 47q64 0 110 -46t46 -111zM510 1602q-66 0 -111 46t-45 110t46 110t110 47q64 0 110 -46t46 -111q0 -64 -45 -110t-111 -46zM1081 514v961h232v-949q0 -248 -158 -398t-417 -148
q-260 0 -416 150t-156 396v949h229v-961q1 -168 97 -250t248 -82t247 83q94 83 94 249z" />
    <glyph glyph-name="Yacute" unicode="&#xdd;" horiz-adv-x="1478" 
d="M612 1638l160 287h250l-227 -287h-183zM858 0h-229v584l-594 891h274l436 -699h5l436 699h258l-586 -891v-584z" />
    <glyph glyph-name="Thorn" unicode="&#xde;" horiz-adv-x="1288" 
d="M403 528h371q90 0 152 58t61 157q0 101 -60 155t-153 54h-371v-424zM174 0v1475h229v-318h373q193 1 318 -109t125 -308t-124 -306t-319 -108h-373v-326h-229z" />
    <glyph glyph-name="germandbls" unicode="&#xdf;" horiz-adv-x="1267" 
d="M403 909h222q76 0 137 49q61 48 61 142t-64 142q-65 48 -149 48t-145 -49t-62 -160v-172zM1055 1135q0 -88 -48 -167t-139 -128v-4q96 -9 206 -102q54 -46 89 -126t35 -176q0 -196 -131 -324t-338 -128q-102 0 -197 36l86 195q61 -29 135 -29t144 62t70 185
q0 124 -85 200t-214 76h-265v-705h-229v1112q0 174 123 278t317 105q194 -1 317 -107q124 -106 124 -253z" />
    <glyph glyph-name="agrave" unicode="&#xe0;" horiz-adv-x="1107" 
d="M520 1475l160 -287h-182l-230 287h252zM317 297q0 -129 168 -129q111 0 191 55t80 170v84q-31 -18 -161 -18q-278 0 -278 -162zM86 287q0 209 187 277q158 59 427 61q55 0 56 49q0 82 -54 128t-155 46q-195 0 -248 -174l-213 76q37 118 153 206t304 88t315 -102t127 -328
v-614h-194l-21 123h-4q-45 -72 -133 -108t-189 -35q-147 0 -253 74q-105 75 -105 233z" />
    <glyph glyph-name="aacute" unicode="&#xe1;" horiz-adv-x="1107" 
d="M403 1188l160 287h250l-227 -287h-183zM317 297q0 -129 168 -129q111 0 191 55t80 170v84q-31 -18 -161 -18q-278 0 -278 -162zM86 287q0 209 187 277q158 59 427 61q55 0 56 49q0 82 -54 128t-155 46q-195 0 -248 -174l-213 76q37 118 153 206t304 88t315 -102t127 -328
v-614h-194l-21 123h-4q-45 -72 -133 -108t-189 -35q-147 0 -253 74q-105 75 -105 233z" />
    <glyph glyph-name="acircumflex" unicode="&#xe2;" horiz-adv-x="1107" 
d="M807 1270l-96 -99l-166 181l-164 -181l-98 99l188 205h150zM317 297q0 -129 168 -129q111 0 191 55t80 170v84q-31 -18 -161 -18q-278 0 -278 -162zM86 287q0 209 187 277q158 59 427 61q55 0 56 49q0 82 -54 128t-155 46q-195 0 -248 -174l-213 76q37 118 153 206
t304 88t315 -102t127 -328v-614h-194l-21 123h-4q-45 -72 -133 -108t-189 -35q-147 0 -253 74q-105 75 -105 233z" />
    <glyph glyph-name="atilde" unicode="&#xe3;" horiz-adv-x="1107" 
d="M684 1178q-53 0 -99 22t-72 50q-70 72 -112 71q-70 0 -69 -102h-133q0 106 52 178t159 71q57 0 110 -36t94 -70q41 -35 72 -35q76 0 76 100h133q0 -249 -211 -249zM317 297q0 -129 168 -129q111 0 191 55t80 170v84q-31 -18 -161 -18q-278 0 -278 -162zM86 287
q0 209 187 277q158 59 427 61q55 0 56 49q0 82 -54 128t-155 46q-195 0 -248 -174l-213 76q37 118 153 206t304 88t315 -102t127 -328v-614h-194l-21 123h-4q-45 -72 -133 -108t-189 -35q-147 0 -253 74q-105 75 -105 233z" />
    <glyph glyph-name="adieresis" unicode="&#xe4;" horiz-adv-x="1107" 
d="M610 1308q0 64 45 110t111 46t111 -46t45 -110t-45 -111q-45 -46 -111 -46t-111 46q-45 47 -45 111zM315 1151q-67 0 -111 46q-44 47 -44 111t45 110t111 46t110 -46q45 -46 45 -110t-45 -111q-45 -46 -111 -46zM317 297q0 -129 168 -129q111 0 191 55t80 170v84
q-31 -18 -161 -18q-278 0 -278 -162zM86 287q0 209 187 277q158 59 427 61q55 0 56 49q0 82 -54 128t-155 46q-195 0 -248 -174l-213 76q37 118 153 206t304 88t315 -102t127 -328v-614h-194l-21 123h-4q-45 -72 -133 -108t-189 -35q-147 0 -253 74q-105 75 -105 233z" />
    <glyph glyph-name="aring" unicode="&#xe5;" horiz-adv-x="1107" 
d="M549 1530q84 0 143 -60q60 -60 60 -143q0 -84 -60 -143q-60 -60 -143 -60q-84 0 -143 60t-60 143q0 83 60 143t143 60zM549 1274q23 0 39 15t16 38t-16 38t-39 15t-38 -15t-15 -38t15 -38t38 -15zM317 297q0 -129 168 -129q111 0 191 55t80 170v84q-31 -18 -161 -18
q-278 0 -278 -162zM86 287q0 209 187 277q158 59 427 61q55 0 56 49q0 82 -54 128t-155 46q-195 0 -248 -174l-213 76q37 118 153 206t304 88t315 -102t127 -328v-614h-194l-21 123h-4q-45 -72 -133 -108t-189 -35q-147 0 -253 74q-105 75 -105 233z" />
    <glyph glyph-name="ae" unicode="&#xe6;" horiz-adv-x="1878" 
d="M317 297q0 -129 168 -129q111 0 191 55t80 170v76q-35 -16 -119 -16q-144 0 -232 -28t-88 -128zM1286 856q-109 0 -196 -64t-97 -186h563q-6 123 -83 187q-78 63 -187 63zM537 1044q246 0 362 -190q141 190 391 190q218 0 358 -131t142 -378q0 -55 -6 -93h-793
q9 -146 97 -210t200 -64q207 0 279 176l209 -80q-64 -135 -196 -210t-282 -74q-252 0 -401 200q-131 -201 -420 -200q-163 0 -277 76t-114 237q0 121 70 196q95 108 418 123q44 2 102 4t68 16q11 14 12 44q0 78 -56 125t-157 47q-190 0 -244 -174l-213 76q33 114 151 204
t300 90z" />
    <glyph glyph-name="ccedilla" unicode="&#xe7;" horiz-adv-x="1159" 
d="M86 522q0 219 154 371t391 151q324 0 450 -286l-215 -78q-66 160 -222 160t-242 -96t-85 -236q0 -138 87 -232t229 -94q184 0 256 160l217 -76q-121 -231 -375 -278l-82 -70q59 -10 109 -65t49 -137t-61 -139q-60 -58 -152 -58t-150 75l117 95q17 -23 39 -23t40 16t17 38
q0 24 -16 39t-41 15t-39 -20l-117 92l107 138q-207 27 -336 173t-129 365z" />
    <glyph glyph-name="egrave" unicode="&#xe8;" horiz-adv-x="1208" 
d="M594 1475l160 -287h-183l-229 287h252zM620 856q-108 0 -194 -64t-102 -186h563q-4 122 -82 186q-77 64 -185 64zM86 513q0 243 157 387t376 144t361 -132t142 -377q0 -18 -6 -93h-794q12 -138 99 -206t186 -68t177 42t113 134l209 -80q-66 -137 -198 -211t-290 -73
q-228 0 -380 145t-152 388z" />
    <glyph glyph-name="eacute" unicode="&#xe9;" horiz-adv-x="1208" 
d="M498 1188l159 287h250l-227 -287h-182zM620 856q-108 0 -194 -64t-102 -186h563q-4 122 -82 186q-77 64 -185 64zM86 513q0 243 157 387t376 144t361 -132t142 -377q0 -18 -6 -93h-794q12 -138 99 -206t186 -68t177 42t113 134l209 -80q-66 -137 -198 -211t-290 -73
q-228 0 -380 145t-152 388z" />
    <glyph glyph-name="ecircumflex" unicode="&#xea;" horiz-adv-x="1208" 
d="M883 1270l-97 -99l-165 181l-164 -181l-99 99l189 205h149zM620 856q-108 0 -194 -64t-102 -186h563q-4 122 -82 186q-77 64 -185 64zM86 513q0 243 157 387t376 144t361 -132t142 -377q0 -18 -6 -93h-794q12 -138 99 -206t186 -68t177 42t113 134l209 -80
q-66 -137 -198 -211t-290 -73q-228 0 -380 145t-152 388z" />
    <glyph glyph-name="edieresis" unicode="&#xeb;" horiz-adv-x="1208" 
d="M686 1308q0 64 46 110t110 46t109 -46q46 -46 46 -110t-45 -111q-44 -46 -110 -46t-111 46q-45 47 -45 111zM391 1151q-67 0 -111 46q-44 47 -44 111t46 110t109 46t109 -46t47 -110q0 -64 -45 -111q-45 -46 -111 -46zM620 856q-108 0 -194 -64t-102 -186h563
q-4 122 -82 186q-77 64 -185 64zM86 513q0 243 157 387t376 144t361 -132t142 -377q0 -18 -6 -93h-794q12 -138 99 -206t186 -68t177 42t113 134l209 -80q-66 -137 -198 -211t-290 -73q-228 0 -380 145t-152 388z" />
    <glyph glyph-name="igrave" unicode="&#xec;" horiz-adv-x="507" 
d="M233 1475l160 -287h-182l-229 287h251zM369 0h-230v1024h230v-1024z" />
    <glyph glyph-name="iacute" unicode="&#xed;" horiz-adv-x="507" 
d="M113 1188l159 287h250l-227 -287h-182zM369 0h-230v1024h230v-1024z" />
    <glyph glyph-name="icircumflex" unicode="&#xee;" horiz-adv-x="507" 
d="M516 1270l-96 -99l-166 181l-164 -181l-98 99l188 205h150zM369 0h-230v1024h230v-1024z" />
    <glyph glyph-name="idieresis" unicode="&#xef;" horiz-adv-x="507" 
d="M479 1151q-67 0 -111 46q-44 47 -44 111t45 110t111 46t110 -46q45 -46 45 -110t-45 -111q-45 -46 -111 -46zM-127 1308q0 64 45 110t111 46q67 0 111 -46t44 -110t-45 -111q-45 -46 -111 -46t-110 46q-45 47 -45 111zM369 0h-230v1024h230v-1024z" />
    <glyph glyph-name="eth" unicode="&#xf0;" horiz-adv-x="1269" 
d="M952 514q0 138 -93 232t-231 94t-224 -88t-87 -241t93 -241t231 -88t224 96t87 236zM1182 614q0 -315 -152 -475q-152 -159 -384 -159t-396 144t-164 385t152 388t356 147t340 -102q-74 215 -238 348l-213 -143l-84 125l168 112q-76 51 -192 95l88 182q170 -66 289 -152
l163 111l82 -125l-129 -88q138 -141 226 -344t88 -449z" />
    <glyph glyph-name="ntilde" unicode="&#xf1;" horiz-adv-x="1181" 
d="M754 1178q-54 0 -100 22t-72 50q-69 71 -111 71q-70 0 -70 -102h-133q0 106 52 178t159 71q57 0 111 -36t94 -70q41 -35 72 -35q76 0 75 100h134q0 -249 -211 -249zM1061 627v-627h-232v625q0 100 -51 157q-50 58 -150 58t-180 -76t-79 -178v-586h-230v1024h195l20 -176
h4q121 197 347 196q156 0 256 -104t100 -313z" />
    <glyph glyph-name="ograve" unicode="&#xf2;" horiz-adv-x="1269" 
d="M606 1475l160 -287h-182l-230 287h252zM635 1044q229 0 388 -148t159 -385t-159 -384t-389 -147t-389 147t-159 384t160 385t389 148zM952 512q0 140 -89 234t-230 94t-229 -96t-87 -235q-1 -139 89 -233t230 -94t228 96t88 234z" />
    <glyph glyph-name="oacute" unicode="&#xf3;" horiz-adv-x="1269" 
d="M502 1188l160 287h249l-227 -287h-182zM635 1044q229 0 388 -148t159 -385t-159 -384t-389 -147t-389 147t-159 384t160 385t389 148zM952 512q0 140 -89 234t-230 94t-229 -96t-87 -235q-1 -139 89 -233t230 -94t228 96t88 234z" />
    <glyph glyph-name="ocircumflex" unicode="&#xf4;" horiz-adv-x="1269" 
d="M901 1270l-96 -99l-166 181l-164 -181l-98 99l188 205h150zM635 1044q229 0 388 -148t159 -385t-159 -384t-389 -147t-389 147t-159 384t160 385t389 148zM952 512q0 140 -89 234t-230 94t-229 -96t-87 -235q-1 -139 89 -233t230 -94t228 96t88 234z" />
    <glyph glyph-name="otilde" unicode="&#xf5;" horiz-adv-x="1269" 
d="M772 1178q-53 0 -99 22t-72 50q-70 72 -112 71q-70 0 -69 -102h-133q0 106 52 178t159 71q57 0 110 -36t94 -70q41 -35 72 -35q76 0 76 100h133q0 -249 -211 -249zM635 1044q229 0 388 -148t159 -385t-159 -384t-389 -147t-389 147t-159 384t160 385t389 148zM952 512
q0 140 -89 234t-230 94t-229 -96t-87 -235q-1 -139 89 -233t230 -94t228 96t88 234z" />
    <glyph glyph-name="odieresis" unicode="&#xf6;" horiz-adv-x="1269" 
d="M860 1151q-66 0 -110 46q-44 47 -45 111q0 64 45 110q44 46 110 46t111 -46t45 -110t-45 -111q-45 -46 -111 -46zM254 1308q0 64 45 110t111 46t110 -46t45 -110q0 -64 -45 -111q-44 -46 -110 -46t-111 46q-45 47 -45 111zM635 1044q229 0 388 -148t159 -385t-159 -384
t-389 -147t-389 147t-159 384t160 385t389 148zM952 512q0 140 -89 234t-230 94t-229 -96t-87 -235q-1 -139 89 -233t230 -94t228 96t88 234z" />
    <glyph glyph-name="divide" unicode="&#xf7;" 
d="M662 995q-57 0 -99 41q-41 40 -41 98t41 98t99 40t97 -40q40 -40 40 -97t-40 -99t-97 -41zM522 346q0 57 41 97t99 40t97 -40q40 -40 40 -97t-40 -98t-97 -41t-99 41q-41 41 -41 98zM209 647v180h942v-180h-942z" />
    <glyph glyph-name="oslash" unicode="&#xf8;" horiz-adv-x="1269" 
d="M635 840q-143 0 -231 -96t-87 -214q0 -120 43 -190l451 448q-76 52 -176 52zM952 512q0 94 -45 172l-448 -448q74 -53 176 -54q141 0 229 96t88 234zM635 1044q184 0 330 -102l79 82l103 -100l-78 -78q113 -143 113 -334q0 -238 -159 -385t-388 -147q-188 0 -332 100
l-78 -80l-102 102l76 76q-113 135 -113 334q0 236 160 384t389 148z" />
    <glyph glyph-name="ugrave" unicode="&#xf9;" horiz-adv-x="1179" 
d="M537 1475l159 -287h-182l-229 287h252zM125 397v627h229v-623q0 -104 50 -161q50 -58 150 -58t178 77t79 179v586h229v-1024h-194l-21 176h-4q-113 -197 -358 -196q-143 0 -241 105q-97 105 -97 312z" />
    <glyph glyph-name="uacute" unicode="&#xfa;" horiz-adv-x="1179" 
d="M471 1188l160 287h250l-228 -287h-182zM125 397v627h229v-623q0 -104 50 -161q50 -58 150 -58t178 77t79 179v586h229v-1024h-194l-21 176h-4q-113 -197 -358 -196q-143 0 -241 105q-97 105 -97 312z" />
    <glyph glyph-name="ucircumflex" unicode="&#xfb;" horiz-adv-x="1179" 
d="M838 1270l-97 -99l-166 181l-163 -181l-99 99l189 205h149zM125 397v627h229v-623q0 -104 50 -161q50 -58 150 -58t178 77t79 179v586h229v-1024h-194l-21 176h-4q-113 -197 -358 -196q-143 0 -241 105q-97 105 -97 312z" />
    <glyph glyph-name="udieresis" unicode="&#xfc;" horiz-adv-x="1179" 
d="M649 1308q0 64 46 110q45 46 109 46t110 -46t46 -110t-44 -111q-46 -46 -112 -46t-110 46q-45 47 -45 111zM354 1151q-66 0 -110 46q-44 47 -45 111q0 64 46 110t109 46q64 0 110 -46t46 -110t-45 -111q-45 -46 -111 -46zM125 397v627h229v-623q0 -104 50 -161
q50 -58 150 -58t178 77t79 179v586h229v-1024h-194l-21 176h-4q-113 -197 -358 -196q-143 0 -241 105q-97 105 -97 312z" />
    <glyph glyph-name="yacute" unicode="&#xfd;" horiz-adv-x="1122" 
d="M467 0l-440 1024h243l305 -778h5l290 778h228l-600 -1495h-226zM461 1188l160 287h249l-227 -287h-182z" />
    <glyph glyph-name="thorn" unicode="&#xfe;" horiz-adv-x="1300" 
d="M369 512q0 -148 85 -238q85 -92 224 -92t222 96t83 235t-83 233t-221 94t-224 -90t-86 -238zM139 -451v1926h230v-601h4q131 170 348 170t355 -146t138 -385t-140 -386t-363 -147t-340 165h-2v-596h-230z" />
    <glyph glyph-name="ydieresis" unicode="&#xff;" horiz-adv-x="1122" 
d="M467 0l-440 1024h243l305 -778h5l290 778h228l-600 -1495h-226zM637 1308q0 64 46 110q45 46 109 46t110 -46t46 -110t-45 -111q-45 -46 -111 -46t-110 46q-45 47 -45 111zM186 1308q0 64 46 110t110 46t110 -46t46 -110t-45 -111q-45 -46 -111 -46t-111 46
q-45 47 -45 111z" />
    <glyph glyph-name="dotlessi" unicode="&#x131;" horiz-adv-x="507" 
d="M369 0h-230v1024h230v-1024z" />
    <glyph glyph-name="Lslash" unicode="&#x141;" horiz-adv-x="1140" 
d="M401 205h613v-205h-840v471l-63 -63l-105 106l168 168v793h227v-566l111 111l104 -107l-215 -215v-493z" />
    <glyph glyph-name="lslash" unicode="&#x142;" horiz-adv-x="507" 
d="M369 1475v-547l92 92l104 -107l-196 -196v-717h-230v487l-80 -79l-104 106l184 184v777h230z" />
    <glyph glyph-name="OE" unicode="&#x152;" horiz-adv-x="2469" 
d="M860 1290q-244 0 -385 -156t-141 -397q0 -243 141 -399t380 -156t379 151t144 388q0 253 -137 411t-381 158zM1610 870h610v-200h-610v-465l774 -2v-203h-1004v217q-200 -233 -528 -235t-538 204t-210 551q0 346 210 552t539 208t527 -235v213h1004v-205h-774v-400z" />
    <glyph glyph-name="oe" unicode="&#x153;" horiz-adv-x="2076" 
d="M1484 856q-108 0 -195 -64t-97 -186h563q-6 122 -84 186q-79 64 -187 64zM633 840q-141 0 -229 -96t-87 -235q-1 -139 89 -233t230 -94t228 96t88 235t-89 233t-230 94zM635 -20q-231 0 -390 147t-159 384t160 385t389 148q129 0 241 -61t185 -172q139 233 424 233
q219 0 361 -131t145 -378q0 -18 -6 -93h-793q10 -146 96 -210t199 -64q206 0 278 176l209 -80q-53 -110 -150 -180t-218 -90q-66 -14 -154 -10q-264 16 -389 227q-156 -231 -428 -231z" />
    <glyph glyph-name="Scaron" unicode="&#x160;" horiz-adv-x="1308" 
d="M827 1911l97 -99l-187 -204h-149l-189 204l99 99l164 -180zM681 182q290 0 290 244q0 102 -54 150t-190 73q-43 9 -117 19t-124 20t-120 38t-117 67q-46 39 -81 107t-35 159q0 193 139 315t367 121q161 0 302 -73q79 -40 141 -120t94 -192l-215 -76q-61 256 -322 256
q-135 0 -205 -59t-70 -153t54 -135q53 -40 139 -56q86 -17 162 -27t123 -20t121 -41q73 -31 119 -73t82 -119t36 -175q0 -203 -137 -328q-137 -124 -371 -124t-384 99q-149 99 -202 275l211 78q74 -250 364 -250z" />
    <glyph glyph-name="scaron" unicode="&#x161;" horiz-adv-x="1044" 
d="M700 1475l97 -99l-187 -205h-149l-189 205l99 99l164 -181zM543 168q86 0 135 33t49 79t-20 75t-105 51q-85 21 -107 23q-22 3 -30 5q-348 70 -348 305q0 150 117 228q118 77 293 77t277 -85t128 -209l-209 -74q-30 131 -108 163q-39 17 -103 17t-114 -30t-50 -88t55 -82
t162 -42t165 -38q58 -19 114 -52q114 -68 113 -224q-1 -155 -115 -238q-114 -82 -302 -82q-187 0 -301 78t-151 206l205 80q61 -176 250 -176z" />
    <glyph glyph-name="Ydieresis" unicode="&#x178;" horiz-adv-x="1478" 
d="M817 1750q0 64 46 110q45 46 109 47q64 0 110 -46t46 -111t-45 -111t-111 -46t-110 46q-45 47 -45 111zM522 1593q-66 0 -110 46q-44 47 -45 111q0 64 46 110t109 47q64 0 110 -46t46 -111t-45 -111t-111 -46zM858 0h-229v584l-594 891h274l436 -699h5l436 699h258
l-586 -891v-584z" />
    <glyph glyph-name="Zcaron" unicode="&#x17d;" horiz-adv-x="1327" 
d="M111 1475h1106v-203l-865 -1065v-4h905v-203h-1187v203l862 1063v4h-821v205zM866 1911l97 -99l-187 -204h-149l-189 204l99 99l163 -180z" />
    <glyph glyph-name="zcaron" unicode="&#x17e;" horiz-adv-x="942" 
d="M72 819v205h798v-205l-532 -612v-4h551v-203h-838v203l531 612v4h-510zM672 1475l96 -99l-186 -205h-150l-188 205l98 99l164 -181z" />
    <glyph glyph-name="florin" unicode="&#x192;" 
d="M1051 1485q100 0 168 -29l-37 -205q-55 29 -119 29q-143 0 -164 -125l-22 -131h245l-37 -205h-245l-158 -887q-23 -133 -123 -217t-252 -84q-98 0 -168 29l37 205q55 -29 119 -29q141 0 162 125l151 858h-168l37 205h168l29 160q20 131 122 216t255 85z" />
    <glyph glyph-name="circumflex" unicode="&#x2c6;" horiz-adv-x="907" 
d="M719 1270l-96 -99l-166 181l-164 -181l-98 99l188 205h149z" />
    <glyph glyph-name="caron" unicode="&#x2c7;" horiz-adv-x="907" 
d="M623 1475l96 -99l-187 -205h-149l-188 205l98 99l164 -181z" />
    <glyph glyph-name="breve" unicode="&#x2d8;" horiz-adv-x="1040" 
d="M225 1475h150q0 -61 43 -103t102 -43q59 0 103 42q43 42 43 104h149q0 -123 -87 -209t-208 -86t-208 86t-87 209z" />
    <glyph glyph-name="dotaccent" unicode="&#x2d9;" horiz-adv-x="503" 
d="M96 1307q0 67 46 111t110 44t109 -45q47 -45 47 -111t-46 -110q-46 -45 -110 -45q-63 0 -110 45q-46 45 -46 111z" />
    <glyph glyph-name="ring" unicode="&#x2da;" horiz-adv-x="788" 
d="M393 1530q83 0 143 -60t60 -143q0 -84 -59 -143q-59 -60 -143 -60t-144 60q-59 60 -60 143q0 83 60 143t143 60zM393 1274q23 0 39 15t17 38q-1 23 -17 38t-39 15t-38 -15t-15 -38t15 -38t38 -15z" />
    <glyph glyph-name="ogonek" unicode="&#x2db;" horiz-adv-x="673" 
d="M358 -408q-102 0 -160 52t-59 133q0 139 168 223h180q-94 -57 -132 -95t-38 -78t23 -60q23 -21 54 -21t52 25l89 -95q-75 -84 -177 -84z" />
    <glyph glyph-name="tilde" unicode="&#x2dc;" horiz-adv-x="1077" 
d="M676 1178q-53 0 -99 22t-72 50q-70 71 -112 71q-70 0 -69 -102h-134q0 106 52 178t159 71q57 0 111 -36t94 -70q41 -35 72 -35q76 0 76 100h133q0 -249 -211 -249z" />
    <glyph glyph-name="hungarumlaut" unicode="&#x2dd;" horiz-adv-x="1089" 
d="M537 1188l159 287h250l-227 -287h-182zM143 1188l160 287h250l-227 -287h-183z" />
    <glyph glyph-name="pi" unicode="&#x3c0;" horiz-adv-x="1187" 
d="M1135 1024v-205h-150v-819h-229v819h-324v-819h-231v819h-150v205h1084z" />
    <glyph glyph-name="endash" unicode="&#x2013;" horiz-adv-x="1222" 
d="M1118 604v-180h-1014v180h1014z" />
    <glyph glyph-name="emdash" unicode="&#x2014;" horiz-adv-x="2246" 
d="M2142 604v-180h-2038v180h2038z" />
    <glyph glyph-name="quoteleft" unicode="&#x2018;" horiz-adv-x="509" 
d="M432 1050q0 -64 -46 -108q-46 -45 -119 -45t-122 59t-49 182t98 231t238 116v-72q-53 -8 -106 -62t-54 -141q72 -2 116 -49t44 -111z" />
    <glyph glyph-name="quoteright" unicode="&#x2019;" horiz-adv-x="509" 
d="M96 1332q0 64 46 108q46 45 119 45q73 1 122 -59t49 -183t-99 -231t-237 -115v72q51 8 106 62q54 54 54 140q-72 1 -116 49t-44 112z" />
    <glyph glyph-name="quotesinglbase" unicode="&#x201a;" horiz-adv-x="509" 
d="M96 150q0 64 46 107q46 44 119 44t122 -59t49 -182q0 -124 -99 -230t-237 -115v72q51 8 106 62q54 54 54 141q-72 2 -116 49t-44 111z" />
    <glyph glyph-name="quotedblleft" unicode="&#x201c;" horiz-adv-x="960" 
d="M883 1050q0 -64 -46 -108q-46 -45 -119 -45t-122 59t-49 182t98 231q99 108 238 116v-72q-53 -8 -107 -62t-53 -141q72 -2 116 -49t44 -111zM432 1050q0 -64 -46 -108q-46 -45 -119 -45t-122 59t-49 182t98 231t238 116v-72q-53 -8 -106 -62t-54 -141q72 -2 116 -49
t44 -111z" />
    <glyph glyph-name="quotedblright" unicode="&#x201d;" horiz-adv-x="960" 
d="M547 1332q0 64 46 108q46 45 119 45q73 1 122 -59t49 -183q1 -123 -99 -231t-237 -115v72q51 8 105 62t55 140q-72 1 -116 49t-44 112zM96 1332q0 64 46 108q46 45 119 45q73 1 122 -59t49 -183t-99 -231t-237 -115v72q51 8 106 62q54 54 54 140q-72 1 -116 49t-44 112z
" />
    <glyph glyph-name="quotedblbase" unicode="&#x201e;" horiz-adv-x="960" 
d="M547 150q0 64 46 107q46 44 119 44t122 -59t49 -182q1 -124 -99 -230t-237 -115v72q51 8 105 62t55 141q-72 2 -116 49t-44 111zM96 150q0 64 46 107q46 44 119 44t122 -59t49 -182q0 -124 -99 -230t-237 -115v72q51 8 106 62q54 54 54 141q-72 2 -116 49t-44 111z" />
    <glyph glyph-name="dagger" unicode="&#x2020;" horiz-adv-x="1120" 
d="M1051 1024v-205h-377v-1270h-230v1270h-374v205h374v451h230v-451h377z" />
    <glyph glyph-name="daggerdbl" unicode="&#x2021;" horiz-adv-x="1120" 
d="M1051 203v-203h-377v-451h-230v451h-374v203h374v616h-374v205h374v451h230v-451h377v-205h-377v-616h377z" />
    <glyph glyph-name="bullet" unicode="&#x2022;" horiz-adv-x="819" 
d="M680 514q0 -114 -79 -192t-191 -78t-192 79q-79 79 -79 191t79 192q79 78 192 78q114 0 192 -78t78 -192z" />
    <glyph glyph-name="perthousand" unicode="&#x2030;" horiz-adv-x="2160" 
d="M1231 1475l-852 -1549l-129 74l850 1546zM1929 369q0 233 -145 233q-146 0 -146 -234t146 -235q76 1 110 57t35 179zM2093 369q0 -183 -80 -281q-79 -98 -229 -98t-230 98t-80 280t80 281t230 99t230 -98t79 -281zM1239 369q0 233 -144 233q-145 0 -145 -234t146 -235
q76 1 110 57t33 179zM1403 369q0 -183 -79 -281q-78 -98 -228 -98t-230 98t-80 280t80 281t230 99t228 -98t79 -281zM520 1106q0 233 -144 233q-144 -1 -144 -235t145 -234q75 0 109 56t34 180zM684 1106q0 -184 -79 -282t-229 -97q-150 0 -229 98q-79 99 -79 281t79 280
q80 98 230 98q151 0 229 -96q78 -98 78 -282z" />
    <glyph glyph-name="guilsinglleft" unicode="&#x2039;" horiz-adv-x="690" 
d="M567 860l-250 -346l250 -348l-149 -105l-314 451l314 453z" />
    <glyph glyph-name="guilsinglright" unicode="&#x203a;" horiz-adv-x="690" 
d="M373 512l-252 346l151 107l314 -453l-314 -451l-149 105z" />
    <glyph glyph-name="fraction" unicode="&#x2044;" horiz-adv-x="215" 
d="M598 1475l-850 -1549l-131 74l850 1546z" />
    <glyph glyph-name="Euro" unicode="&#x20ac;" 
d="M879 840h-795v147h188q48 244 194 376t374 132q270 0 420 -184l-154 -164q-90 143 -266 143q-260 0 -334 -303h373v-147zM879 635v-150h-373q74 -301 334 -301q174 0 266 135l162 -153q-152 -186 -428 -186q-227 0 -374 130q-146 130 -194 375h-188v150h795z" />
    <glyph glyph-name="trademark" unicode="&#x2122;" horiz-adv-x="1724" 
d="M983 1161v-424h-164v738h187l200 -379h2l201 379h176v-738h-164v420h-2l-151 -276h-129l-154 280h-2zM510 737h-164v592h-207v146h578v-146h-207v-592z" />
    <glyph glyph-name="Omega" unicode="&#x2126;" horiz-adv-x="1724" 
d="M1006 0v109q174 57 278 226t104 397t-150 394q-151 166 -377 166t-377 -167q-150 -167 -150 -395t104 -396t281 -225v-109h-477v109h207q-160 102 -252 268t-93 360q0 317 218 537t540 221q322 0 540 -220t218 -538q0 -195 -93 -361t-253 -267h209v-109h-477z" />
    <glyph glyph-name="arrowleft" unicode="&#x2190;" 
d="M1280 602v-180h-870l295 -291l-125 -131l-510 512l510 512l125 -127l-295 -295h870z" />
    <glyph glyph-name="arrowup" unicode="&#x2191;" 
d="M768 0h-178v868l-291 -295l-131 127l512 510l512 -510l-127 -127l-297 295v-868z" />
    <glyph glyph-name="arrowright" unicode="&#x2192;" 
d="M80 422v180h868l-295 295l127 127l510 -512l-510 -512l-127 131l295 291h-868z" />
    <glyph glyph-name="arrowdown" unicode="&#x2193;" 
d="M590 1210h178v-870l297 295l127 -125l-512 -510l-512 510l131 125l291 -293v868z" />
    <glyph glyph-name="arrowboth" unicode="&#x2194;" horiz-adv-x="1968" 
d="M1260 897l126 127l510 -512l-510 -512l-126 131l294 291h-1140l293 -291l-125 -131l-510 512l510 512l125 -127l-293 -295h1140z" />
    <glyph glyph-name="arrowrightdown" unicode="&#x21b4;" 
d="M418 57v179h416l-615 616l127 125l615 -612v417h178v-725h-721z" />
    <glyph glyph-name="partialdiff" unicode="&#x2202;" horiz-adv-x="1169" 
d="M580 182q112 0 186 88t74 241t-76 241t-188 88q-113 0 -186 -94t-73 -244t75 -235t188 -85zM569 1495q246 0 379 -208t133 -541t-111 -538q-58 -108 -160 -168t-243 -60q-215 0 -348 143t-133 384t133 389t336 148t295 -194q-25 440 -287 440q-115 1 -205 -65l-118 161
q141 109 329 109z" />
    <glyph glyph-name="Delta" unicode="&#x2206;" horiz-adv-x="1271" 
d="M637 1186l-356 -983h712zM1219 0h-1168v203l471 1272h228l469 -1272v-203z" />
    <glyph glyph-name="product" unicode="&#x220f;" horiz-adv-x="1388" 
d="M1335 1475v-205h-178v-1270h-231v1270h-465v-1270h-230v1270h-180v205h1284z" />
    <glyph glyph-name="summation" unicode="&#x2211;" horiz-adv-x="1089" 
d="M1036 1475v-205h-674v-4l496 -607l-496 -606v-4h674v-203h-985v203l496 610l-496 611v205h985z" />
    <glyph glyph-name="minus" unicode="&#x2212;" 
d="M1151 827v-180h-942v180h942z" />
    <glyph glyph-name="radical" unicode="&#x221a;" 
d="M121 604v203h405l172 -512h4l355 1180h229l-473 -1475h-233l-222 604h-237z" />
    <glyph glyph-name="infinity" unicode="&#x221e;" 
d="M928 565q66 0 110 47t43 124q0 77 -43 124t-110 47q-123 0 -156 -172q33 -170 156 -170zM432 565q123 0 156 172q-33 170 -156 170q-66 0 -110 -47t-43 -124q-1 -77 43 -124t110 -47zM946 1067q133 0 226 -86q94 -86 94 -242q0 -157 -94 -243t-226 -86q-174 0 -264 161
h-4q-88 -162 -266 -161q-133 0 -226 87q-92 87 -92 243t92 241q92 86 226 86q168 0 266 -162h4q88 162 264 162z" />
    <glyph glyph-name="integral" unicode="&#x222b;" horiz-adv-x="794" 
d="M281 -39v1223q0 131 87 216t238 85q102 0 172 -29v-205q-60 29 -122 29t-103 -30t-41 -95v-1223q0 -133 -86 -217t-238 -84q-98 0 -172 29v205q61 -29 125 -29q140 0 140 125z" />
    <glyph glyph-name="approxequal" unicode="&#x2248;" 
d="M1028 635h195q0 -169 -78 -275t-250 -106q-82 0 -153 35q-72 35 -110 77q-102 111 -186 111q-115 0 -114 -162h-195q0 171 80 275t248 104q79 0 149 -35t110 -75q109 -110 189 -111q115 0 115 162zM1028 1176h195q0 -168 -78 -274t-250 -107q-82 1 -153 35
q-72 34 -110 76q-103 112 -186 112q-115 0 -114 -162h-195q0 172 80 276t248 103q79 0 149 -35t110 -76q107 -110 189 -110q115 0 115 162z" />
    <glyph glyph-name="notequal" unicode="&#x2260;" 
d="M1151 645v-180h-543l-110 -191l-129 74l65 117h-225v180h330l106 184h-436v179h541l110 192l129 -74l-67 -118h229v-179h-334l-106 -184h440z" />
    <glyph glyph-name="lessequal" unicode="&#x2264;" 
d="M211 784v215l833 316l70 -195l-655 -225v-4l653 -229l-68 -193zM1143 371v-178h-932v178h932z" />
    <glyph glyph-name="greaterequal" unicode="&#x2265;" 
d="M1147 999v-215l-834 -315l-67 195l653 227v4l-653 227l67 193zM215 193v178h932v-178h-932z" />
    <glyph glyph-name="lozenge" unicode="&#x25ca;" horiz-adv-x="1384" 
d="M1040 737l-348 520l-350 -514l350 -522zM602 0l-498 743l498 732h180l498 -738l-498 -737h-180z" />
    <glyph glyph-name="a.ss01" horiz-adv-x="1300" 
d="M932 512q0 148 -85 238t-224 90t-223 -94t-83 -233q0 -140 83 -235q82 -96 222 -96t225 91t85 239zM932 874v150h229v-1024h-192l-21 166h-4q-117 -186 -364 -186q-213 0 -354 147q-140 147 -140 386t139 385t357 146t346 -170h4z" />
    <glyph glyph-name="zero.tf" 
d="M1038 734q0 272 -92 414t-267 142t-267 -139t-92 -413t92 -415q94 -141 268 -141t266 140t92 412zM1270 737q0 -362 -154 -560q-154 -197 -436 -197t-436 198t-154 559q0 362 154 560t436 198t436 -198t154 -560z" />
    <glyph glyph-name="one.tf" 
d="M285 1270v205h549v-1272h317v-203h-866v203h317v1067h-317z" />
    <glyph glyph-name="two.tf" 
d="M895 1075q-1 215 -219 215q-96 0 -158 -64q-61 -65 -72 -192l-221 72q25 176 150 282t313 107q188 0 312 -110t124 -292t-133 -339l-483 -551h637v-203h-922v203l576 657q59 72 78 117q18 45 18 98z" />
    <glyph glyph-name="three.tf" 
d="M582 668v202h110q80 0 140 54t61 162q-1 110 -63 157t-148 47q-205 0 -240 -256l-217 76q23 154 144 270t309 115q188 0 317 -111t129 -290q0 -221 -190 -324v-4q227 -106 227 -356q0 -205 -137 -318q-137 -112 -338 -112t-337 102t-169 272l213 78q18 -131 97 -190
q79 -60 191 -60q113 0 181 58t68 181q0 124 -71 185t-161 62h-116z" />
    <glyph glyph-name="four.tf" 
d="M831 510v354h230v-354h123v-203h-123v-307h-230v307h-671v203l614 965h258l-616 -965h415z" />
    <glyph glyph-name="five.tf" 
d="M1094 1475v-205h-555l-72 -418h4q113 111 303 111q190 1 310 -135t120 -353t-136 -356t-345 -139t-345 100t-173 276l211 86q16 -132 97 -196t191 -64t191 69q80 69 80 225t-78 218q-78 63 -195 64q-192 -1 -266 -144l-227 64l129 797h756z" />
    <glyph glyph-name="six.tf" 
d="M983 490q-1 130 -73 206t-201 76t-206 -74t-100 -176q13 -141 97 -240q84 -100 204 -100t199 89q80 89 80 219zM154 741q0 348 154 551q155 203 429 203t430 -170l-157 -154q-96 119 -250 119q-342 0 -371 -483h4q113 170 332 170t354 -132t135 -345t-143 -367t-375 -153
q-264 0 -403 206t-139 555z" />
    <glyph glyph-name="seven.tf" 
d="M233 1272v203h943v-203l-617 -1272h-242l621 1272h-705z" />
    <glyph glyph-name="eight.tf" 
d="M459 1076q-1 -105 67 -156q68 -52 153 -52t153 52t67 156q0 105 -64 160q-65 54 -155 54t-156 -54q-65 -55 -65 -160zM680 182q104 0 182 58t78 181q0 122 -80 182q-80 61 -181 61t-181 -60t-80 -184q0 -122 79 -180t183 -58zM1130 1096q0 -86 -44 -174t-150 -138v-4
q236 -117 235 -377q0 -186 -137 -305q-137 -118 -355 -118t-354 118t-137 305q0 262 234 377v4q-193 102 -193 312q0 176 126 288t324 111q199 1 325 -111t126 -288z" />
    <glyph glyph-name="nine.tf" 
d="M654 1290q-120 0 -200 -84t-79 -208t73 -200t201 -75q129 0 207 76t98 182q-18 133 -99 221t-201 88zM662 1495q264 -1 403 -203t139 -550t-154 -556q-156 -206 -430 -206t-430 170l158 151q98 -119 250 -119q342 0 371 502h-4q-111 -164 -331 -164t-355 131t-135 339
t144 356t374 149z" />
    <glyph glyph-name="arrowleftup" 
d="M942 977v-178h-418l615 -617l-127 -125l-615 615v-418h-178v723h723z" />
    <glyph glyph-name="arrowrightup" 
d="M418 799v178h721v-723h-178v418l-615 -615l-127 125l615 617h-416z" />
    <glyph glyph-name="arrowleftdown" 
d="M942 236v-179h-723v725h178v-417l615 612l127 -125l-615 -616h418z" />
    <glyph glyph-name="parenleft.case" horiz-adv-x="598" 
d="M334 738q0 -421 229 -787l-166 -111q-139 184 -216 418t-77 471t75 471t210 418l174 -113q-229 -346 -229 -767z" />
    <glyph glyph-name="parenright.case" horiz-adv-x="598" 
d="M494 729q0 -238 -76 -471t-217 -418l-166 111q229 367 229 789t-229 765l174 113q135 -184 210 -418t75 -471z" />
    <glyph glyph-name="bracketleft.case" horiz-adv-x="636" 
d="M121 -143v1761h463v-203h-232v-1356h232v-202h-463z" />
    <glyph glyph-name="bracketright.case" horiz-adv-x="636" 
d="M514 1618v-1761h-463v202h236v1356h-236v203h463z" />
    <glyph glyph-name="braceleft.case" horiz-adv-x="722" 
d="M485 582v-426q0 -104 82 -105h103v-194h-181q-106 0 -171 61t-64 160v450q0 111 -113 111h-20v195h20q113 0 113 110v451q0 98 64 160q65 62 171 63h181v-195h-103q-82 0 -82 -104v-426q0 -105 -88 -154v-4q88 -49 88 -153z" />
    <glyph glyph-name="braceright.case" horiz-adv-x="722" 
d="M238 893v426q0 104 -82 104h-105v195h180q106 0 171 -62t65 -161v-451q0 -111 113 -110h20v-195h-20q-113 0 -113 -111v-450q0 -98 -65 -160t-171 -61h-180v194h105q82 0 82 105v426q0 104 88 153v4q-88 49 -88 154z" />
    <glyph glyph-name="questiondown.case" horiz-adv-x="1028" 
d="M430 1319q0 66 45 111t111 45t110 -45t45 -111q0 -66 -45 -112q-44 -46 -110 -46t-111 46t-45 112zM510 -20q-192 0 -316 110t-124 305q0 98 29 169q30 71 75 106q92 72 193 120q45 22 75 64t29 102v127h229v-127q0 -124 -40 -194t-128 -119q-14 -8 -61 -30
q-70 -33 -121 -79t-51 -149t63 -153q62 -50 160 -50t161 65q62 65 73 191l221 -69q-25 -177 -150 -283t-317 -106z" />
    <glyph glyph-name="guillemotleft.case" horiz-adv-x="1118" 
d="M997 1065l-249 -346l249 -348l-149 -105l-313 451l313 452zM567 1065l-250 -346l250 -348l-149 -105l-314 451l314 452z" />
    <glyph glyph-name="guillemotright.case" horiz-adv-x="1118" 
d="M373 717l-254 348l149 104l314 -452l-314 -451l-149 103zM805 717l-254 348l149 104l314 -452l-314 -451l-149 103z" />
    <glyph glyph-name="guilsinglleft.case" horiz-adv-x="688" 
d="M567 1065l-250 -346l250 -348l-149 -105l-314 451l314 452z" />
    <glyph glyph-name="guilsinglright.case" horiz-adv-x="688" 
d="M371 717l-252 346l151 106l314 -452l-314 -451l-149 105z" />
    <glyph glyph-name="exclamdown.case" horiz-adv-x="624" 
d="M469 1329q0 -65 -46 -111t-112 -46q-67 0 -111 45q-44 47 -44 111t45 110t111 47q66 0 111 -45q46 -45 46 -111zM383 1063l45 -1063h-231l43 1063h143z" />
    <glyph glyph-name="underscore.case" horiz-adv-x="1011" 
d="M0 -123v103h1012v-103h-1012z" />
    <glyph glyph-name="bullet.case" horiz-adv-x="819" 
d="M680 719q0 -113 -79 -192t-191 -79t-192 80q-79 78 -79 191t79 191t192 79q114 -1 192 -79t78 -191z" />
    <glyph glyph-name="periodcentered.case" horiz-adv-x="503" 
d="M96 717q0 67 46 111t110 44t109 -45q47 -45 47 -111t-46 -110q-46 -45 -110 -45q-63 0 -110 45q-46 45 -46 111z" />
    <glyph glyph-name="hyphen.case" horiz-adv-x="802" 
d="M698 809v-180h-594v180h594z" />
    <glyph glyph-name="endash.case" horiz-adv-x="1222" 
d="M1118 809v-180h-1014v180h1014z" />
    <glyph glyph-name="emdash.case" horiz-adv-x="2246" 
d="M2142 809v-180h-2038v180h2038z" />
    <glyph glyph-name="bar.case" horiz-adv-x="647" 
d="M438 1618v-1761h-229v1761h229z" />
    <glyph glyph-name="brokenbar.case" horiz-adv-x="647" 
d="M438 1618v-696h-229v696h229zM438 553v-696h-229v696h229z" />
    <glyph glyph-name="y.ss02" horiz-adv-x="1185" 
d="M553 -274q125 0 193 66t69 222v138h-4q-117 -172 -340 -172q-154 0 -250 103t-96 314v627h229v-625q0 -102 50 -159q50 -58 151 -58t181 76t79 180v586h232v-999q-4 -280 -163 -396q-142 -100 -357 -100q-216 0 -386 133l148 160q96 -96 264 -96z" />
    <glyph glyph-name="yacute.ss02" horiz-adv-x="1185" 
d="M459 1188l159 287h250l-227 -287h-182zM553 -274q125 0 193 66t69 222v138h-4q-117 -172 -340 -172q-154 0 -250 103t-96 314v627h229v-625q0 -102 50 -159q50 -58 151 -58t181 76t79 180v586h232v-999q-4 -280 -163 -396q-142 -100 -357 -100q-216 0 -386 133l148 160
q96 -96 264 -96z" />
    <glyph glyph-name="ydieresis.ss02" horiz-adv-x="1185" 
d="M817 1151q-67 0 -111 46q-44 47 -44 111t46 110t109 46t109 -46t47 -110q0 -64 -45 -111q-45 -46 -111 -46zM211 1308q0 64 46 110q45 46 109 46t110 -46t46 -110t-45 -111q-45 -46 -111 -46t-110 46q-45 47 -45 111zM553 -274q125 0 193 66t69 222v138h-4
q-117 -172 -340 -172q-154 0 -250 103t-96 314v627h229v-625q0 -102 50 -159q50 -58 151 -58t181 76t79 180v586h232v-999q-4 -280 -163 -396q-142 -100 -357 -100q-216 0 -386 133l148 160q96 -96 264 -96z" />
    <glyph glyph-name="aacute.ss01" horiz-adv-x="1300" 
d="M512 1188l160 287h250l-228 -287h-182zM932 512q0 148 -85 238t-224 90t-223 -94t-83 -233q0 -140 83 -235q82 -96 222 -96t225 91t85 239zM932 874v150h229v-1024h-192l-21 166h-4q-117 -186 -364 -186q-213 0 -354 147q-140 147 -140 386t139 385t357 146t346 -170h4z
" />
    <glyph glyph-name="acircumflex.ss01" horiz-adv-x="1300" 
d="M885 1270l-97 -99l-165 181l-164 -181l-99 99l189 205h149zM932 512q0 148 -85 238t-224 90t-223 -94t-83 -233q0 -140 83 -235q82 -96 222 -96t225 91t85 239zM932 874v150h229v-1024h-192l-21 166h-4q-117 -186 -364 -186q-213 0 -354 147q-140 147 -140 386t139 385
t357 146t346 -170h4z" />
    <glyph glyph-name="adieresis.ss01" horiz-adv-x="1300" 
d="M874 1151q-66 0 -110 46q-44 47 -45 111q0 64 46 110t109 46q64 0 110 -46t46 -110t-45 -111q-45 -46 -111 -46zM268 1308q0 64 46 110t110 46t110 -46t46 -110t-45 -111q-45 -46 -111 -46t-111 46q-45 47 -45 111zM932 512q0 148 -85 238t-224 90t-223 -94t-83 -233
q0 -140 83 -235q82 -96 222 -96t225 91t85 239zM932 874v150h229v-1024h-192l-21 166h-4q-117 -186 -364 -186q-213 0 -354 147q-140 147 -140 386t139 385t357 146t346 -170h4z" />
    <glyph glyph-name="agrave.ss01" horiz-adv-x="1300" 
d="M602 1475l160 -287h-182l-230 287h252zM932 512q0 148 -85 238t-224 90t-223 -94t-83 -233q0 -140 83 -235q82 -96 222 -96t225 91t85 239zM932 874v150h229v-1024h-192l-21 166h-4q-117 -186 -364 -186q-213 0 -354 147q-140 147 -140 386t139 385t357 146t346 -170h4z
" />
    <glyph glyph-name="aring.ss01" horiz-adv-x="1300" 
d="M604 1530q84 0 144 -60t59 -143q0 -84 -59 -143q-60 -60 -144 -60t-143 60t-60 143t59 143t144 60zM604 1274q23 0 39 15t16 38t-16 38t-39 15t-38 -15t-15 -38t15 -38t38 -15zM932 512q0 148 -85 238t-224 90t-223 -94t-83 -233q0 -140 83 -235q82 -96 222 -96t225 91
t85 239zM932 874v150h229v-1024h-192l-21 166h-4q-117 -186 -364 -186q-213 0 -354 147q-140 147 -140 386t139 385t357 146t346 -170h4z" />
    <glyph glyph-name="atilde.ss01" horiz-adv-x="1300" 
d="M799 1178q-53 0 -99 22t-72 50q-69 72 -112 71q-70 0 -70 -102h-133q1 106 53 178t158 71q56 0 110 -36t95 -70q41 -35 72 -35q76 0 76 100h133q0 -249 -211 -249zM932 512q0 148 -85 238t-224 90t-223 -94t-83 -233q0 -140 83 -235q82 -96 222 -96t225 91t85 239z
M932 874v150h229v-1024h-192l-21 166h-4q-117 -186 -364 -186q-213 0 -354 147q-140 147 -140 386t139 385t357 146t346 -170h4z" />
    <glyph glyph-name="P.ss03" horiz-adv-x="1306" 
d="M403 754h316q141 0 215 66t74 192t-74 192t-215 66h-316v-516zM719 549h-316v-549h-229v1475h545q238 0 378 -126t140 -337t-139 -337t-379 -126z" />
    <glyph glyph-name="R.ss03" horiz-adv-x="1366" 
d="M403 795h373q117 0 185 63q67 63 67 175t-62 174t-180 63h-383v-475zM1257 1040q-1 -145 -79 -258t-207 -161v-5l307 -616h-281l-274 590h-320v-590h-229v1475h610q213 1 343 -123t130 -312z" />
    </font>
</defs>
</svg>
